{
.appVersion = "3133";
copyright = "Copyright © 2018 by Stephen Hutchings. All rights reserved.";
customParameters = (
{
name = glyphOrder;
value = (
"arrow-left",
"arrow-right",
"arrow-up",
"arrow-down",
left,
right,
up,
down,
upload,
download,
undo,
redo,
replay,
refresh,
external,
plus,
minus,
caret,
"caret-up",
"caret-down",
"i-left",
"i-right",
"i-up",
"i-down",
"i-plus",
"i-minus",
"i-tick",
"i-cross",
"i-bullet",
"i-asterisk",
play,
pause,
prev,
next,
subtitles,
"audio-description",
"vol-low",
"vol-mid",
"vol-high",
"vol-mute",
captions,
hd,
"chart-line",
"chart-bar",
"chart-scatter",
"chart-pie",
calendar,
clock,
star,
heart,
flag,
bookmark,
chat,
edit,
delete,
show,
hide,
lock,
link,
attach,
file,
folder,
image,
video,
audio,
microphone,
"video-camera",
print,
menu,
bars,
"opts-h",
"opts-v",
home,
cancel,
cog,
search,
"zoom-in",
"zoom-out",
contract,
expand,
grid,
matrix,
list,
box,
"box-full",
"box-plus",
"box-minus",
"box-tick",
"box-cross",
"box-o-minus",
"box-o-plus",
"box-o-tick",
"box-o-cross",
"radio-off",
"radio-on",
"radio-full",
info,
warn,
pass,
fail,
unknown,
text,
bold,
italic,
underline,
strikeout,
"text-size",
"text-unstyle",
"align-left",
"align-center",
"align-right",
indent,
outdent,
chapters,
"justify-left",
"justify-center",
"justify-right",
"sort-asc",
"sort-desc",
translate,
user,
group,
web,
cloud,
wifi,
rss,
share,
mail,
code,
drive,
server,
power,
copy,
transparent,
opaque,
landscape,
portrait,
"panel-left",
"panel-right",
min,
max,
scale,
move,
internal
);
},
{
name = Axes;
value = (
{
Name = Weight;
Tag = wght;
},
{
Name = Width;
Tag = wdth;
}
);
}
);
date = "2018-02-02 03:23:41 +0000";
designer = "Stephen Hutchings";
designerURL = "https://www.s-ings.com";
disablesNiceNames = 1;
familyName = Microns;
featurePrefixes = (
{
automatic = 1;
code = "languagesystem DFLT dflt;\012";
name = Languagesystems;
}
);
features = (
{

glyphs = (
{
glyphname = "arrow-right";
production = "arrow-right";
lastChange = "2022-10-13 01:34:49 +0000";
layers = (
{
hints = (
{
horizontal = 1;
origin = "{0, 7}";
target = "{0, 6}";
type = TTStem;
options = 4;
},
{
horizontal = 1;
origin = "{0, 6}";
target = down;
type = TopGhost;
},
{
horizontal = 1;
origin = "{0, 7}";
target = up;
type = BottomGhost;
}
);
layerId = "6EE81571-8FAC-412F-997F-533F3C178221";
paths = (
{
closed = 1;
nodes = (
"420 180 LINE",
"270 330 LINE",
"240 300 LINE",
"330 210 LINE",
"340 204 LINE",
"340 200 LINE",
"60 200 LINE",
"60 160 LINE",
"340 160 LINE",
"340 156 LINE",
"330 150 LINE",
"240 60 LINE",
"270 30 LINE"
);
}
);
width = 480;
}
);
note = "right-arrow";
unicode = E701;
category = Symbol;
},
{
glyphname = down;
production = down;
lastChange = "2022-10-13 01:34:49 +0000";
layers = (
{
layerId = "6EE81571-8FAC-412F-997F-533F3C178221";
paths = (
{
closed = 1;
nodes = (
"430 240 LINE",
"400 270 LINE",
"250 120 LINE",
"90 270 LINE",
"60 240 LINE",
"250 60 LINE"
);
}
);
width = 490;
}
);
note = down;
unicode = E707;
category = Symbol;
},
{
glyphname = upload;
production = upload;
lastChange = "2022-10-13 01:34:49 +0000";
layers = (
{
layerId = "6EE81571-8FAC-412F-997F-533F3C178221";
paths = (
{
closed = 1;
nodes = (
"260 0 LINE",
"260 140 LINE",
"260 190 LINE",
"280 170 LINE",
"330 120 LINE",
"360 150 LINE",
"240 270 LINE",
"120 150 LINE",
"150 120 LINE",
"200 170 LINE",
"220 190 LINE",
"220 140 LINE",
"220 0 LINE"
);
},
{
closed = 1;
nodes = (
"420 320 LINE",
"420 360 LINE",
"60 360 LINE",
"60 320 LINE"
);
}
);
width = 480;
}
);
note = upload;
unicode = E708;
category = Symbol;
},
{
glyphname = undo;
production = undo;
lastChange = "2022-10-13 13:36:09 +0000";
layers = (
{
background = {
paths = (
{
closed = 1;
nodes = (
"350 200 OFFCURVE",
"290 260 OFFCURVE",
"170 290 CURVE",
"170 370 LINE",
"20 220 LINE",
"170 60 LINE",
"170 150 LINE",
"240 150 OFFCURVE",
"310 120 OFFCURVE",
"380 60 CURVE"
);
}
);
};
layerId = "6EE81571-8FAC-412F-997F-533F3C178221";
paths = (
{
closed = 1;
nodes = (
"145 290 LINE",
"45 200 LINE",
"145 110 LINE"
);
},
{
closed = 1;
nodes = (
"135 180 LINE",
"180 180 LINE SMOOTH",
"247 180 OFFCURVE",
"300 127 OFFCURVE",
"300 60 CURVE",
"340 60 LINE",
"340 150 OFFCURVE",
"270 220 OFFCURVE",
"180 220 CURVE SMOOTH",
"135 220 LINE"
);
}
);
width = 400;
}
);
note = back;
unicode = E70A;
category = Symbol;
},
{
glyphname = replay;
production = replay;
lastChange = "2022-10-13 01:34:49 +0000";
layers = (
{
layerId = "6EE81571-8FAC-412F-997F-533F3C178221";
paths = (
{
closed = 1;
nodes = (
"220 380 LINE",
"120 290 LINE",
"220 200 LINE"
);
},
{
closed = 1;
nodes = (
"220 270 LINE",
"282 270 OFFCURVE",
"330 222 OFFCURVE",
"330 160 CURVE SMOOTH",
"330 98 OFFCURVE",
"282 50 OFFCURVE",
"220 50 CURVE SMOOTH",
"158 50 OFFCURVE",
"110 98 OFFCURVE",
"110 160 CURVE SMOOTH",
"110 180 LINE",
"70 180 LINE",
"70 160 LINE SMOOTH",
"70 76 OFFCURVE",
"136 10 OFFCURVE",
"220 10 CURVE SMOOTH",
"304 10 OFFCURVE",
"370 76 OFFCURVE",
"370 160 CURVE SMOOTH",
"370 244 OFFCURVE",
"304 310 OFFCURVE",
"220 310 CURVE"
);
}
);
width = 440;
}
);
note = replay;
unicode = E70C;
category = Symbol;
},
{
glyphname = external;
production = external;
lastChange = "2022-10-13 11:59:42 +0000";
layers = (
{
background = {
paths = (
{
closed = 1;
nodes = (
"380 340 LINE",
"250 340 LINE",
"380 210 LINE"
);
},
{
closed = 1;
nodes = (
"180 170 LINE",
"210 140 LINE",
"340 270 LINE",
"310 300 LINE"
);
},
{
closed = 1;
nodes = (
"340 60 LINE",
"100 60 LINE",
"100 300 LINE",
"200 300 LINE",
"200 340 LINE",
"80 340 LINE SMOOTH",
"69 340 OFFCURVE",
"60 331 OFFCURVE",
"60 320 CURVE SMOOTH",
"60 40 LINE SMOOTH",
"60 29 OFFCURVE",
"69 20 OFFCURVE",
"80 20 CURVE SMOOTH",
"360 20 LINE SMOOTH",
"371 20 OFFCURVE",
"380 29 OFFCURVE",
"380 40 CURVE SMOOTH",
"380 160 LINE",
"340 160 LINE"
);
}
);
};
layerId = "6EE81571-8FAC-412F-997F-533F3C178221";
paths = (
{
closed = 1;
nodes = (
"380 320 LINE",
"250 320 LINE",
"380 190 LINE"
);
},
{
closed = 1;
nodes = (
"180 150 LINE",
"210 120 LINE",
"340 250 LINE",
"310 280 LINE"
);
},
{
closed = 1;
nodes = (
"320 60 LINE",
"120 60 LINE",
"120 260 LINE",
"200 260 LINE",
"200 300 LINE",
"100 300 LINE SMOOTH",
"89 300 OFFCURVE",
"80 291 OFFCURVE",
"80 280 CURVE SMOOTH",
"80 40 LINE SMOOTH",
"80 29 OFFCURVE",
"89 20 OFFCURVE",
"100 20 CURVE SMOOTH",
"340 20 LINE SMOOTH",
"351 20 OFFCURVE",
"360 29 OFFCURVE",
"360 40 CURVE SMOOTH",
"360 140 LINE",
"320 140 LINE"
);
}
);
width = 440;
}
);
note = back;
unicode = E773;
category = Symbol;
},
{
glyphname = plus;
production = plus;
lastChange = "2022-10-13 05:50:34 +0000";
layers = (
{
layerId = "6EE81571-8FAC-412F-997F-533F3C178221";
paths = (
{
closed = 1;
nodes = (
"260 20 LINE",
"260 160 LINE",
"400 160 LINE",
"400 200 LINE",
"260 200 LINE",
"260 340 LINE",
"220 340 LINE",
"220 200 LINE",
"80 200 LINE",
"80 160 LINE",
"220 160 LINE",
"220 20 LINE"
);
}
);
width = 480;
}
);
note = plus;
unicode = E70D;
category = Symbol;
},
{
glyphname = minus;
production = minus;
lastChange = "2022-10-13 05:50:41 +0000";
layers = (
{
layerId = "6EE81571-8FAC-412F-997F-533F3C178221";
paths = (
{
closed = 1;
nodes = (
"400 160 LINE",
"400 200 LINE",
"80 200 LINE",
"80 160 LINE"
);
}
);
width = 480;
}
);
note = minus;
unicode = E70E;
category = Symbol;
},
{
glyphname = caret;
production = caret;
lastChange = "2022-10-13 12:52:36 +0000";
layers = (
{
layerId = "6EE81571-8FAC-412F-997F-533F3C178221";
paths = (
{
closed = 1;
nodes = (
"240 220 LINE",
"150 330 LINE",
"60 220 LINE"
);
},
{
closed = 1;
nodes = (
"240 140 LINE",
"60 140 LINE",
"150 30 LINE"
);
}
);
width = 300;
}
);
note = ".notdef";
unicode = E70F;
category = Symbol;
},
{
glyphname = "caret-up";
production = "caret-up";
lastChange = "2022-10-13 12:52:43 +0000";
layers = (
{
layerId = "6EE81571-8FAC-412F-997F-533F3C178221";
paths = (
{
closed = 1;
nodes = (
"240 140 LINE",
"150 250 LINE",
"60 140 LINE"
);
}
);
width = 300;
}
);
note = ".notdef";
unicode = E710;
category = Symbol;
},
{
glyphname = "caret-down";
production = "caret-down";
lastChange = "2022-10-13 12:53:04 +0000";
layers = (
{
layerId = "6EE81571-8FAC-412F-997F-533F3C178221";
paths = (
{
closed = 1;
nodes = (
"240 240 LINE",
"60 240 LINE",
"150 130 LINE"
);
}
);
width = 300;
}
);
note = ".notdef";
unicode = E711;
category = Symbol;
},
{
glyphname = "i-right";
production = "i-right";
lastChange = "2022-10-13 01:34:49 +0000";
layers = (
{
layerId = "6EE81571-8FAC-412F-997F-533F3C178221";
paths = (
{
closed = 1;
nodes = (
"210 180 LINE",
"90 300 LINE",
"60 270 LINE",
"150 180 LINE",
"60 90 LINE",
"90 60 LINE"
);
}
);
width = 270;
}
);
note = right;
unicode = E713;
category = Symbol;
},
{
glyphname = "i-plus";
production = "i-plus";
lastChange = "2022-10-13 01:34:49 +0000";
layers = (
{
layerId = "6EE81571-8FAC-412F-997F-533F3C178221";
paths = (
{
closed = 1;
nodes = (
"180 80 LINE",
"180 160 LINE",
"260 160 LINE",
"260 200 LINE",
"180 200 LINE",
"180 280 LINE",
"140 280 LINE",
"140 200 LINE",
"60 200 LINE",
"60 160 LINE",
"140 160 LINE",
"140 80 LINE"
);
}
);
width = 320;
}
);
note = plus;
unicode = E716;
category = Symbol;
},
{
glyphname = "i-minus";
production = "i-minus";
lastChange = "2022-10-13 01:34:49 +0000";
layers = (
{
layerId = "6EE81571-8FAC-412F-997F-533F3C178221";
paths = (
{
closed = 1;
nodes = (
"260 160 LINE",
"260 200 LINE",
"60 200 LINE",
"60 160 LINE"
);
}
);
width = 320;
}
);
note = minus;
unicode = E717;
category = Symbol;
},
{
glyphname = "i-tick";
production = "i-tick";
lastChange = "2022-10-13 01:34:49 +0000";
layers = (
{
background = {
paths = (
{
closed = 1;
nodes = (
"270 240 LINE",
"230 270 LINE",
"140 160 LINE",
"90 210 LINE",
"60 180 LINE",
"140 90 LINE"
);
}
);
};
layerId = "6EE81571-8FAC-412F-997F-533F3C178221";
paths = (
{
closed = 1;
nodes = (
"50 180 LINE",
"80 210 LINE",
"137 153 LINE",
"240 270 LINE",
"270 240 LINE",
"138 90 LINE"
);
}
);
width = 330;
}
);
unicode = E718;
category = Symbol;
},
{
glyphname = "i-cross";
production = "i-cross";
lastChange = "2022-10-13 01:34:49 +0000";
layers = (
{
layerId = "6EE81571-8FAC-412F-997F-533F3C178221";
paths = (
{
closed = 1;
nodes = (
"150 150 LINE",
"210 90 LINE",
"240 120 LINE",
"180 180 LINE",
"240 240 LINE",
"210 270 LINE",
"150 210 LINE",
"90 270 LINE",
"60 240 LINE",
"120 180 LINE",
"60 120 LINE",
"90 90 LINE"
);
}
);
width = 300;
}
);
unicode = E719;
category = Symbol;
},
{
glyphname = "i-bullet";
production = "i-bullet";
lastChange = "2022-10-13 04:14:34 +0000";
layers = (
{
layerId = "6EE81571-8FAC-412F-997F-533F3C178221";
paths = (
{
closed = 1;
nodes = (
"200 90 OFFCURVE",
"240 130 OFFCURVE",
"240 180 CURVE SMOOTH",
"240 230 OFFCURVE",
"200 270 OFFCURVE",
"150 270 CURVE SMOOTH",
"100 270 OFFCURVE",
"60 230 OFFCURVE",
"60 180 CURVE SMOOTH",
"60 130 OFFCURVE",
"100 90 OFFCURVE",
"150 90 CURVE SMOOTH"
);
}
);
width = 300;
}
);
note = "inner-circle";
unicode = E71A;
category = Symbol;
},
{
glyphname = "i-asterisk";
production = "i-asterisk";
lastChange = "2022-10-13 01:34:49 +0000";
layers = (
{
background = {
paths = (
{
closed = 1;
nodes = (
"188 75 LINE",
"188 135 LINE",
"176 180 LINE",
"188 225 LINE",
"188 285 LINE",
"143 285 LINE",
"143 225 LINE",
"154 180 LINE",
"143 135 LINE",
"143 75 LINE"
);
},
{
closed = 1;
nodes = (
"267 147 LINE",
"216 177 LINE",
"171 189 LINE",
"137 222 LINE",
"85 252 LINE",
"63 213 LINE",
"114 183 LINE",
"159 171 LINE",
"193 138 LINE",
"245 108 LINE"
);
},
{
closed = 1;
nodes = (
"85 108 LINE",
"137 138 LINE",
"171 171 LINE",
"216 183 LINE",
"267 213 LINE",
"245 252 LINE",
"193 222 LINE",
"159 189 LINE",
"114 177 LINE",
"63 147 LINE"
);
}
);
};
layerId = "6EE81571-8FAC-412F-997F-533F3C178221";
paths = (
{
closed = 1;
nodes = (
"240 250 LINE",
"201 227 OFFCURVE",
"177 211 OFFCURVE",
"156 187 CURVE",
"125 181 OFFCURVE",
"99 167 OFFCURVE",
"60 145 CURVE",
"80 110 LINE",
"119 133 OFFCURVE",
"143 149 OFFCURVE",
"164 173 CURVE",
"195 179 OFFCURVE",
"221 193 OFFCURVE",
"260 215 CURVE"
);
},
{
closed = 1;
nodes = (
"60 215 LINE",
"99 193 OFFCURVE",
"125 179 OFFCURVE",
"156 173 CURVE",
"177 149 OFFCURVE",
"201 133 OFFCURVE",
"240 110 CURVE",
"260 145 LINE",
"221 167 OFFCURVE",
"195 181 OFFCURVE",
"164 187 CURVE",
"143 211 OFFCURVE",
"119 227 OFFCURVE",
"80 250 CURVE"
);
},
{
closed = 1;
nodes = (
"180 75 LINE",
"180 120 OFFCURVE",
"178 150 OFFCURVE",
"168 180 CURVE",
"178 210 OFFCURVE",
"180 240 OFFCURVE",
"180 285 CURVE",
"140 285 LINE",
"140 240 OFFCURVE",
"142 210 OFFCURVE",
"152 180 CURVE",
"142 150 OFFCURVE",
"140 120 OFFCURVE",
"140 75 CURVE"
);
}
);
width = 320;
}
);
unicode = E71B;
category = Symbol;
},
{
glyphname = play;
production = play;
lastChange = "2022-10-13 01:34:49 +0000";
layers = (
{
layerId = "6EE81571-8FAC-412F-997F-533F3C178221";
paths = (
{
closed = 1;
nodes = (
"310 180 LINE",
"60 330 LINE",
"60 30 LINE"
);
}
);
width = 360;
}
);
note = play;
unicode = E71C;
category = Symbol;
},
{
glyphname = pause;
production = pause;
lastChange = "2022-10-13 01:34:49 +0000";
layers = (
{
layerId = "6EE81571-8FAC-412F-997F-533F3C178221";
paths = (
{
closed = 1;
nodes = (
"300 30 LINE",
"300 330 LINE",
"220 330 LINE",
"220 30 LINE"
);
},
{
closed = 1;
nodes = (
"140 30 LINE",
"140 330 LINE",
"60 330 LINE",
"60 30 LINE"
);
}
);
width = 360;
}
);
note = pause;
unicode = E71D;
category = Symbol;
},
{
glyphname = next;
production = next;
lastChange = "2022-10-13 07:56:48 +0000";
layers = (
{
layerId = "6EE81571-8FAC-412F-997F-533F3C178221";
paths = (
{
closed = 1;
nodes = (
"260 180 LINE",
"60 330 LINE",
"60 30 LINE"
);
},
{
closed = 1;
nodes = (
"320 30 LINE",
"320 330 LINE",
"260 330 LINE",
"260 30 LINE"
);
}
);
width = 380;
}
);
note = play;
unicode = E775;
category = Symbol;
},
{
glyphname = subtitles;
production = subtitles;
lastChange = "2022-10-13 13:53:27 +0000";
layers = (
{
background = {
paths = (
{
closed = 1;
nodes = (
"100 120 LINE",
"280 120 LINE",
"280 80 LINE",
"100 80 LINE"
);
},
{
closed = 1;
nodes = (
"100 200 LINE",
"160 200 LINE",
"160 160 LINE",
"100 160 LINE"
);
},
{
closed = 1;
nodes = (
"320 120 LINE",
"380 120 LINE",
"380 80 LINE",
"320 80 LINE"
);
},
{
closed = 1;
nodes = (
"200 200 LINE",
"380 200 LINE",
"380 160 LINE",
"200 160 LINE"
);
},
{
closed = 1;
nodes = (
"400 40 LINE SMOOTH",
"411 40 OFFCURVE",
"420 49 OFFCURVE",
"420 60 CURVE SMOOTH",
"420 300 LINE SMOOTH",
"420 311 OFFCURVE",
"411 320 OFFCURVE",
"400 320 CURVE SMOOTH",
"80 320 LINE SMOOTH",
"69 320 OFFCURVE",
"60 311 OFFCURVE",
"60 300 CURVE SMOOTH",
"60 60 LINE SMOOTH",
"60 49 OFFCURVE",
"69 40 OFFCURVE",
"80 40 CURVE SMOOTH"
);
}
);
};
layerId = "6EE81571-8FAC-412F-997F-533F3C178221";
paths = (
{
closed = 1;
nodes = (
"420 20 LINE SMOOTH",
"431 20 OFFCURVE",
"440 29 OFFCURVE",
"440 40 CURVE SMOOTH",
"440 320 LINE SMOOTH",
"440 331 OFFCURVE",
"431 340 OFFCURVE",
"420 340 CURVE SMOOTH",
"60 340 LINE SMOOTH",
"49 340 OFFCURVE",
"40 331 OFFCURVE",
"40 320 CURVE SMOOTH",
"40 40 LINE SMOOTH",
"40 29 OFFCURVE",
"49 20 OFFCURVE",
"60 20 CURVE SMOOTH"
);
},
{
closed = 1;
nodes = (
"80 100 LINE",
"280 100 LINE",
"280 60 LINE",
"80 60 LINE"
);
},
{
closed = 1;
nodes = (
"80 180 LINE",
"160 180 LINE",
"160 140 LINE",
"80 140 LINE"
);
},
{
closed = 1;
nodes = (
"320 100 LINE",
"400 100 LINE",
"400 60 LINE",
"320 60 LINE"
);
},
{
closed = 1;
nodes = (
"200 180 LINE",
"400 180 LINE",
"400 140 LINE",
"200 140 LINE"
);
}
);
width = 480;
}
);
note = subtitles;
unicode = E71E;
category = Symbol;
},
{
glyphname = "audio-description";
production = "audio-description";
lastChange = "2022-10-13 01:34:49 +0000";
layers = (
{
layerId = "6EE81571-8FAC-412F-997F-533F3C178221";
paths = (
{
closed = 1;
nodes = (
"286 0 OFFCURVE",
"352 44 OFFCURVE",
"380 100 CURVE",
"352 156 OFFCURVE",
"286 200 OFFCURVE",
"230 200 CURVE SMOOTH",
"174 200 OFFCURVE",
"108 156 OFFCURVE",
"80 100 CURVE",
"108 44 OFFCURVE",
"174 0 OFFCURVE",
"230 0 CURVE SMOOTH"
);
},
{
closed = 1;
nodes = (
"196 40 OFFCURVE",
"170 66 OFFCURVE",
"170 100 CURVE SMOOTH",
"170 134 OFFCURVE",
"196 160 OFFCURVE",
"230 160 CURVE SMOOTH",
"264 160 OFFCURVE",
"290 134 OFFCURVE",
"290 100 CURVE SMOOTH",
"290 66 OFFCURVE",
"264 40 OFFCURVE",
"230 40 CURVE SMOOTH"
);
},
{
closed = 1;
nodes = (
"247 70 OFFCURVE",
"260 83 OFFCURVE",
"260 100 CURVE SMOOTH",
"260 117 OFFCURVE",
"247 130 OFFCURVE",
"230 130 CURVE SMOOTH",
"213 130 OFFCURVE",
"200 117 OFFCURVE",
"200 100 CURVE SMOOTH",
"200 83 OFFCURVE",
"213 70 OFFCURVE",
"230 70 CURVE SMOOTH"
);
},
{
closed = 1;
nodes = (
"180 240 OFFCURVE",
"205 248 OFFCURVE",
"230 248 CURVE SMOOTH",
"255 248 OFFCURVE",
"281 240 OFFCURVE",
"300 220 CURVE",
"330 250 LINE",
"302 278 OFFCURVE",
"266 290 OFFCURVE",
"230 290 CURVE SMOOTH",
"194 290 OFFCURVE",
"158 278 OFFCURVE",
"130 250 CURVE",
"160 220 LINE"
);
},
{
closed = 1;
nodes = (
"137 317 OFFCURVE",
"183 332 OFFCURVE",
"230 332 CURVE SMOOTH",
"277 332 OFFCURVE",
"324 317 OFFCURVE",
"360 280 CURVE",
"390 310 LINE",
"345 355 OFFCURVE",
"288 374 OFFCURVE",
"230 374 CURVE SMOOTH",
"173 374 OFFCURVE",
"115 355 OFFCURVE",
"70 310 CURVE",
"100 280 LINE"
);
}
);
width = 460;
}
);
note = "audio-description";
unicode = E725;
category = Symbol;
},
{
glyphname = "vol-low";
production = "vol-low";
lastChange = "2022-10-13 01:34:49 +0000";
layers = (
{
layerId = "6EE81571-8FAC-412F-997F-533F3C178221";
paths = (
{
closed = 1;
nodes = (
"220 360 LINE",
"120 260 LINE",
"60 260 LINE",
"60 100 LINE",
"120 100 LINE",
"220 0 LINE"
);
}
);
width = 285;
}
);
note = "volume-low";
unicode = E71F;
category = Symbol;
},
{
glyphname = "vol-mid";
production = "vol-mid";
lastChange = "2022-10-13 01:34:49 +0000";
layers = (
{
background = {
paths = (
{
closed = 1;
nodes = (
"285 80 OFFCURVE",
"330 124 OFFCURVE",
"330 180 CURVE SMOOTH",
"330 236 OFFCURVE",
"285 280 OFFCURVE",
"230 280 CURVE SMOOTH",
"174 280 OFFCURVE",
"130 236 OFFCURVE",
"130 180 CURVE SMOOTH",
"130 124 OFFCURVE",
"174 80 OFFCURVE",
"230 80 CURVE SMOOTH"
);
},
{
closed = 1;
nodes = (
"295 100 OFFCURVE",
"320 140 OFFCURVE",
"320 180 CURVE SMOOTH",
"320 220 OFFCURVE",
"295 260 OFFCURVE",
"260 272 CURVE",
"260 88 LINE"
);
}
);
};
components = (
{
name = "vol-low";
}
);
layerId = "6EE81571-8FAC-412F-997F-533F3C178221";
paths = (
{
closed = 1;
nodes = (
"300 95 OFFCURVE",
"330 137 OFFCURVE",
"330 180 CURVE SMOOTH",
"330 223 OFFCURVE",
"300 265 OFFCURVE",
"260 276 CURVE",
"260 84 LINE"
);
}
);
width = 400;
}
);
note = "volume-mid";
unicode = E720;
category = Symbol;
},
{
glyphname = "vol-high";
production = "vol-high";
lastChange = "2022-10-13 01:34:49 +0000";
layers = (
{
background = {
paths = (
{
closed = 1;
nodes = (
"331 0 OFFCURVE",
"410 79 OFFCURVE",
"410 180 CURVE SMOOTH",
"410 281 OFFCURVE",
"331 360 OFFCURVE",
"230 360 CURVE SMOOTH",
"129 360 OFFCURVE",
"50 281 OFFCURVE",
"50 180 CURVE SMOOTH",
"50 79 OFFCURVE",
"129 0 OFFCURVE",
"230 0 CURVE SMOOTH"
);
},
{
closed = 1;
nodes = (
"286 80 OFFCURVE",
"330 124 OFFCURVE",
"330 180 CURVE SMOOTH",
"330 236 OFFCURVE",
"286 280 OFFCURVE",
"230 280 CURVE SMOOTH",
"174 280 OFFCURVE",
"130 236 OFFCURVE",
"130 180 CURVE SMOOTH",
"130 124 OFFCURVE",
"174 80 OFFCURVE",
"230 80 CURVE SMOOTH"
);
}
);
};
components = (
{
name = "vol-mid";
}
);
layerId = "6EE81571-8FAC-412F-997F-533F3C178221";
paths = (
{
closed = 1;
nodes = (
"344 13 OFFCURVE",
"410 91 OFFCURVE",
"410 180 CURVE SMOOTH",
"410 269 OFFCURVE",
"344 347 OFFCURVE",
"260 358 CURVE",
"260 316 LINE",
"322 307 OFFCURVE",
"370 247 OFFCURVE",
"370 180 CURVE SMOOTH",
"370 113 OFFCURVE",
"322 53 OFFCURVE",
"260 44 CURVE",
"260 2 LINE"
);
}
);
width = 480;
}
);
note = "volume-high";
unicode = E721;
category = Symbol;
},
{
glyphname = "vol-mute";
production = "vol-mute";
lastChange = "2022-10-13 13:44:06 +0000";
layers = (
{
background = {
components = (
{
name = "vol-high";
}
);
};
components = (
{
name = _part.crossbar;
}
);
layerId = "6EE81571-8FAC-412F-997F-533F3C178221";
paths = (
{
closed = 1;
nodes = (
"220 200 LINE",
"140 280 LINE",
"120 260 LINE",
"60 260 LINE",
"60 100 LINE",
"120 100 LINE",
"220 0 LINE"
);
},
{
closed = 1;
nodes = (
"300 7 OFFCURVE",
"335 27 OFFCURVE",
"362 57 CURVE",
"334 85 LINE",
"314 63 OFFCURVE",
"289 48 OFFCURVE",
"260 44 CURVE",
"260 2 LINE"
);
},
{
closed = 1;
nodes = (
"220 360 LINE",
"180 320 LINE",
"220 280 LINE"
);
},
{
closed = 1;
nodes = (
"330 180 LINE",
"330 224 OFFCURVE",
"299 266 OFFCURVE",
"260 276 CURVE",
"260 240 LINE",
"325 175 LINE"
);
},
{
closed = 1;
nodes = (
"406 133 OFFCURVE",
"410 156 OFFCURVE",
"410 180 CURVE SMOOTH",
"410 270 OFFCURVE",
"344 348 OFFCURVE",
"260 359 CURVE",
"260 316 LINE",
"322 306 OFFCURVE",
"370 247 OFFCURVE",
"370 180 CURVE SMOOTH",
"370 168 OFFCURVE",
"368 156 OFFCURVE",
"366 144 CURVE",
"397 113 LINE"
);
}
);
width = 480;
}
);
note = "volume-mute";
unicode = E722;
category = Symbol;
},
{
glyphname = captions;
production = captions;
lastChange = "2022-10-13 01:34:49 +0000";
layers = (
{
background = {
paths = (
{
closed = 1;
nodes = (
"390 0 LINE SMOOTH",
"408 0 OFFCURVE",
"420 12 OFFCURVE",
"420 30 CURVE SMOOTH",
"420 330 LINE SMOOTH",
"420 348 OFFCURVE",
"408 360 OFFCURVE",
"390 360 CURVE SMOOTH",
"90 360 LINE SMOOTH",
"72 360 OFFCURVE",
"60 348 OFFCURVE",
"60 330 CURVE SMOOTH",
"60 30 LINE SMOOTH",
"60 12 OFFCURVE",
"72 0 OFFCURVE",
"90 0 CURVE SMOOTH"
);
},
{
closed = 1;
nodes = (
"124 80 OFFCURVE",
"100 100 OFFCURVE",
"100 130 CURVE SMOOTH",
"100 240 LINE SMOOTH",
"100 270 OFFCURVE",
"124 290 OFFCURVE",
"160 290 CURVE SMOOTH",
"196 290 OFFCURVE",
"220 270 OFFCURVE",
"220 240 CURVE SMOOTH",
"220 200 LINE",
"180 200 LINE",
"180 230 LINE SMOOTH",
"180 242 OFFCURVE",
"172 250 OFFCURVE",
"160 250 CURVE SMOOTH",
"148 250 OFFCURVE",
"140 242 OFFCURVE",
"140 230 CURVE SMOOTH",
"140 140 LINE SMOOTH",
"140 128 OFFCURVE",
"148 120 OFFCURVE",
"160 120 CURVE SMOOTH",
"172 120 OFFCURVE",
"180 128 OFFCURVE",
"180 140 CURVE SMOOTH",
"180 160 LINE",
"220 160 LINE",
"220 130 LINE SMOOTH",
"220 100 OFFCURVE",
"196 80 OFFCURVE",
"160 80 CURVE SMOOTH"
);
},
{
closed = 1;
nodes = (
"284 80 OFFCURVE",
"260 100 OFFCURVE",
"260 130 CURVE SMOOTH",
"260 240 LINE SMOOTH",
"260 270 OFFCURVE",
"284 290 OFFCURVE",
"320 290 CURVE SMOOTH",
"356 290 OFFCURVE",
"380 270 OFFCURVE",
"380 240 CURVE SMOOTH",
"380 200 LINE",
"340 200 LINE",
"340 230 LINE SMOOTH",
"340 242 OFFCURVE",
"332 250 OFFCURVE",
"320 250 CURVE SMOOTH",
"308 250 OFFCURVE",
"300 242 OFFCURVE",
"300 230 CURVE SMOOTH",
"300 140 LINE SMOOTH",
"300 128 OFFCURVE",
"308 120 OFFCURVE",
"320 120 CURVE SMOOTH",
"332 120 OFFCURVE",
"340 128 OFFCURVE",
"340 140 CURVE SMOOTH",
"340 160 LINE",
"380 160 LINE",
"380 130 LINE SMOOTH",
"380 100 OFFCURVE",
"356 80 OFFCURVE",
"320 80 CURVE SMOOTH"
);
}
);
};
layerId = "6EE81571-8FAC-412F-997F-533F3C178221";
paths = (
{
closed = 1;
nodes = (
"420 20 LINE SMOOTH",
"431 20 OFFCURVE",
"440 29 OFFCURVE",
"440 40 CURVE SMOOTH",
"440 320 LINE SMOOTH",
"440 331 OFFCURVE",
"431 340 OFFCURVE",
"420 340 CURVE SMOOTH",
"60 340 LINE SMOOTH",
"49 340 OFFCURVE",
"40 331 OFFCURVE",
"40 320 CURVE SMOOTH",
"40 40 LINE SMOOTH",
"40 29 OFFCURVE",
"49 20 OFFCURVE",
"60 20 CURVE SMOOTH"
);
},
{
closed = 1;
nodes = (
"126 75 OFFCURVE",
"100 99 OFFCURVE",
"100 130 CURVE SMOOTH",
"100 230 LINE SMOOTH",
"100 261 OFFCURVE",
"126 285 OFFCURVE",
"160 285 CURVE SMOOTH",
"194 285 OFFCURVE",
"220 261 OFFCURVE",
"220 230 CURVE SMOOTH",
"220 200 LINE",
"180 200 LINE",
"180 229 LINE SMOOTH",
"180 237 OFFCURVE",
"171 249 OFFCURVE",
"160 249 CURVE SMOOTH",
"149 249 OFFCURVE",
"140 237 OFFCURVE",
"140 229 CURVE SMOOTH",
"140 130 LINE SMOOTH",
"140 122 OFFCURVE",
"149 111 OFFCURVE",
"160 111 CURVE SMOOTH",
"171 111 OFFCURVE",
"180 122 OFFCURVE",
"180 130 CURVE SMOOTH",
"180 160 LINE",
"220 160 LINE",
"220 130 LINE SMOOTH",
"220 99 OFFCURVE",
"194 75 OFFCURVE",
"160 75 CURVE SMOOTH"
);
},
{
closed = 1;
nodes = (
"286 75 OFFCURVE",
"260 99 OFFCURVE",
"260 130 CURVE SMOOTH",
"260 230 LINE SMOOTH",
"260 261 OFFCURVE",
"286 285 OFFCURVE",
"320 285 CURVE SMOOTH",
"354 285 OFFCURVE",
"380 261 OFFCURVE",
"380 230 CURVE SMOOTH",
"380 200 LINE",
"340 200 LINE",
"340 229 LINE SMOOTH",
"340 237 OFFCURVE",
"331 249 OFFCURVE",
"320 249 CURVE SMOOTH",
"309 249 OFFCURVE",
"300 237 OFFCURVE",
"300 229 CURVE SMOOTH",
"300 130 LINE SMOOTH",
"300 122 OFFCURVE",
"309 111 OFFCURVE",
"320 111 CURVE SMOOTH",
"331 111 OFFCURVE",
"340 122 OFFCURVE",
"340 130 CURVE SMOOTH",
"340 160 LINE",
"380 160 LINE",
"380 130 LINE SMOOTH",
"380 99 OFFCURVE",
"354 75 OFFCURVE",
"320 75 CURVE SMOOTH"
);
}
);
width = 480;
}
);
note = captions;
unicode = E723;
category = Symbol;
},
{
glyphname = hd;
production = hd;
lastChange = "2022-10-13 13:50:16 +0000";
layers = (
{
layerId = "6EE81571-8FAC-412F-997F-533F3C178221";
paths = (
{
closed = 1;
nodes = (
"420 20 LINE SMOOTH",
"431 20 OFFCURVE",
"440 29 OFFCURVE",
"440 40 CURVE SMOOTH",
"440 320 LINE SMOOTH",
"440 331 OFFCURVE",
"431 340 OFFCURVE",
"420 340 CURVE SMOOTH",
"60 340 LINE SMOOTH",
"49 340 OFFCURVE",
"40 331 OFFCURVE",
"40 320 CURVE SMOOTH",
"40 40 LINE SMOOTH",
"40 29 OFFCURVE",
"49 20 OFFCURVE",
"60 20 CURVE SMOOTH"
);
},
{
closed = 1;
nodes = (
"100 280 LINE",
"140 280 LINE",
"140 200 LINE",
"180 200 LINE",
"180 280 LINE",
"220 280 LINE",
"220 80 LINE",
"180 80 LINE",
"180 160 LINE",
"140 160 LINE",
"140 80 LINE",
"100 80 LINE"
);
},
{
closed = 1;
nodes = (
"260 280 LINE",
"330 280 LINE SMOOTH",
"358 280 OFFCURVE",
"380 254 OFFCURVE",
"380 220 CURVE SMOOTH",
"380 140 LINE SMOOTH",
"380 106 OFFCURVE",
"358 80 OFFCURVE",
"330 80 CURVE SMOOTH",
"260 80 LINE"
);
},
{
closed = 1;
nodes = (
"320 120 LINE SMOOTH",
"331 120 OFFCURVE",
"340 129 OFFCURVE",
"340 140 CURVE SMOOTH",
"340 220 LINE SMOOTH",
"340 231 OFFCURVE",
"331 240 OFFCURVE",
"320 240 CURVE SMOOTH",
"300 240 LINE",
"300 120 LINE"
);
}
);
width = 480;
}
);
note = hd;
unicode = E724;
category = Symbol;
},
{
glyphname = "chart-line";
production = "chart-line";
lastChange = "2022-10-13 01:34:49 +0000";
layers = (
{
layerId = "6EE81571-8FAC-412F-997F-533F3C178221";
paths = (
{
closed = 1;
nodes = (
"170 210 LINE",
"230 150 LINE",
"360 280 LINE",
"330 310 LINE",
"230 210 LINE",
"170 270 LINE",
"60 160 LINE",
"90 130 LINE"
);
},
{
closed = 1;
nodes = (
"340 0 LINE",
"340 40 LINE",
"60 40 LINE",
"60 0 LINE"
);
}
);
width = 420;
}
);
note = chart;
unicode = E726;
category = Symbol;
},
{
glyphname = "chart-bar";
production = "chart-bar";
lastChange = "2022-10-13 01:34:49 +0000";
layers = (
{
layerId = "6EE81571-8FAC-412F-997F-533F3C178221";
paths = (
{
closed = 1;
nodes = (
"340 0 LINE",
"340 40 LINE",
"60 40 LINE",
"60 0 LINE"
);
},
{
closed = 1;
nodes = (
"100 80 LINE",
"100 180 LINE",
"60 180 LINE",
"60 80 LINE"
);
},
{
closed = 1;
nodes = (
"180 80 LINE",
"180 300 LINE",
"140 300 LINE",
"140 80 LINE"
);
},
{
closed = 1;
nodes = (
"260 80 LINE",
"260 240 LINE",
"220 240 LINE",
"220 80 LINE"
);
},
{
closed = 1;
nodes = (
"340 80 LINE",
"340 360 LINE",
"300 360 LINE",
"300 80 LINE"
);
}
);
width = 400;
}
);
note = "text-left";
unicode = E727;
category = Symbol;
},
{
glyphname = "chart-scatter";
production = "chart-scatter";
lastChange = "2022-10-13 01:34:49 +0000";
layers = (
{
background = {
paths = (
{
closed = 1;
nodes = (
"340 0 LINE",
"340 40 LINE",
"60 40 LINE",
"60 0 LINE"
);
},
{
closed = 1;
nodes = (
"100 140 LINE",
"100 180 LINE",
"60 180 LINE",
"60 140 LINE"
);
},
{
closed = 1;
nodes = (
"180 260 LINE",
"180 300 LINE",
"140 300 LINE",
"140 260 LINE"
);
},
{
closed = 1;
nodes = (
"260 200 LINE",
"260 240 LINE",
"220 240 LINE",
"220 200 LINE"
);
},
{
closed = 1;
nodes = (
"340 320 LINE",
"340 360 LINE",
"300 360 LINE",
"300 320 LINE"
);
}
);
};
layerId = "6EE81571-8FAC-412F-997F-533F3C178221";
paths = (
{
closed = 1;
nodes = (
"180 160 LINE",
"180 200 LINE",
"140 200 LINE",
"140 160 LINE"
);
},
{
closed = 1;
nodes = (
"340 140 LINE",
"340 180 LINE",
"300 180 LINE",
"300 140 LINE"
);
},
{
closed = 1;
nodes = (
"340 0 LINE",
"340 40 LINE",
"60 40 LINE",
"60 0 LINE"
);
},
{
closed = 1;
nodes = (
"100 140 LINE",
"100 180 LINE",
"60 180 LINE",
"60 140 LINE"
);
},
{
closed = 1;
nodes = (
"180 260 LINE",
"180 300 LINE",
"140 300 LINE",
"140 260 LINE"
);
},
{
closed = 1;
nodes = (
"260 200 LINE",
"260 240 LINE",
"220 240 LINE",
"220 200 LINE"
);
},
{
closed = 1;
nodes = (
"340 320 LINE",
"340 360 LINE",
"300 360 LINE",
"300 320 LINE"
);
}
);
width = 400;
}
);
note = "text-left";
unicode = E728;
category = Symbol;
},
{
glyphname = "chart-pie";
production = "chart-pie";
lastChange = "2022-10-13 01:34:49 +0000";
layers = (
{
layerId = "6EE81571-8FAC-412F-997F-533F3C178221";
paths = (
{
closed = 1;
nodes = (
"294 0 OFFCURVE",
"360 66 OFFCURVE",
"360 150 CURVE",
"210 150 LINE",
"210 300 LINE",
"126 300 OFFCURVE",
"60 234 OFFCURVE",
"60 150 CURVE SMOOTH",
"60 66 OFFCURVE",
"126 0 OFFCURVE",
"210 0 CURVE SMOOTH"
);
},
{
closed = 1;
nodes = (
"390 190 LINE",
"390 268 OFFCURVE",
"328 330 OFFCURVE",
"250 330 CURVE",
"250 190 LINE"
);
}
);
width = 458;
}
);
note = clock;
unicode = E729;
category = Symbol;
},
{
glyphname = calendar;
production = calendar;
lastChange = "2022-10-13 05:19:29 +0000";
layers = (
{
layerId = "6EE81571-8FAC-412F-997F-533F3C178221";
paths = (
{
closed = 1;
nodes = (
"400 20 LINE SMOOTH",
"411 20 OFFCURVE",
"420 29 OFFCURVE",
"420 40 CURVE SMOOTH",
"420 280 LINE SMOOTH",
"420 291 OFFCURVE",
"411 300 OFFCURVE",
"400 300 CURVE SMOOTH",
"360 300 LINE",
"360 340 LINE",
"320 340 LINE",
"320 300 LINE",
"260 300 LINE",
"260 340 LINE",
"220 340 LINE",
"220 300 LINE",
"160 300 LINE",
"160 340 LINE",
"120 340 LINE",
"120 300 LINE",
"80 300 LINE SMOOTH",
"69 300 OFFCURVE",
"60 291 OFFCURVE",
"60 280 CURVE SMOOTH",
"60 40 LINE SMOOTH",
"60 29 OFFCURVE",
"69 20 OFFCURVE",
"80 20 CURVE SMOOTH"
);
},
{
closed = 1;
nodes = (
"100 220 LINE",
"380 220 LINE",
"380 60 LINE",
"100 60 LINE"
);
}
);
width = 480;
}
);
note = calendar;
unicode = E72A;
category = Symbol;
},
{
glyphname = clock;
production = clock;
lastChange = "2022-10-13 01:34:49 +0000";
layers = (
{
layerId = "6EE81571-8FAC-412F-997F-533F3C178221";
paths = (
{
closed = 1;
nodes = (
"312 15 OFFCURVE",
"385 88 OFFCURVE",
"385 180 CURVE SMOOTH",
"385 272 OFFCURVE",
"312 345 OFFCURVE",
"220 345 CURVE SMOOTH",
"128 345 OFFCURVE",
"55 272 OFFCURVE",
"55 180 CURVE SMOOTH",
"55 88 OFFCURVE",
"128 15 OFFCURVE",
"220 15 CURVE SMOOTH"
);
},
{
closed = 1;
nodes = (
"200 290 LINE",
"240 290 LINE",
"240 200 LINE",
"330 200 LINE",
"330 160 LINE",
"200 160 LINE"
);
}
);
width = 450;
}
);
note = clock;
unicode = E72B;
category = Symbol;
},
{
glyphname = star;
production = star;
lastChange = "2022-10-13 01:34:50 +0000";
layers = (
{
background = {
paths = (
{
closed = 1;
nodes = (
"260 90 LINE",
"380 10 LINE",
"350 150 LINE",
"460 240 LINE",
"310 260 LINE",
"260 390 LINE",
"200 260 LINE",
"60 240 LINE",
"170 150 LINE",
"140 10 LINE"
);
}
);
};
guideLines = (
{
angle = 234.1278;
position = "{332, 272}";
}
);
layerId = "6EE81571-8FAC-412F-997F-533F3C178221";
paths = (
{
closed = 1;
nodes = (
"260 391 LINE",
"206 255 LINE",
"64 244 LINE",
"173 153 LINE",
"138 10 LINE",
"260 90 LINE",
"382 10 LINE",
"347 153 LINE",
"456 244 LINE",
"314 255 LINE"
);
}
);
width = 516;
}
);
note = star;
unicode = E72C;
category = Symbol;
},
{
glyphname = heart;
production = heart;
lastChange = "2022-10-13 01:34:50 +0000";
layers = (
{
layerId = "6EE81571-8FAC-412F-997F-533F3C178221";
paths = (
{
closed = 1;
nodes = (
"345 110 OFFCURVE",
"420 170 OFFCURVE",
"420 233 CURVE SMOOTH",
"420 282 OFFCURVE",
"380 320 OFFCURVE",
"330 320 CURVE SMOOTH",
"280 320 OFFCURVE",
"240 280 OFFCURVE",
"240 230 CURVE",
"240 280 OFFCURVE",
"200 320 OFFCURVE",
"150 320 CURVE SMOOTH",
"100 320 OFFCURVE",
"60 280 OFFCURVE",
"60 230 CURVE SMOOTH",
"60 170 OFFCURVE",
"135 110 OFFCURVE",
"240 20 CURVE"
);
}
);
width = 480;
}
);
note = heart;
unicode = E72D;
category = Symbol;
},
{
glyphname = flag;
production = flag;
lastChange = "2022-10-13 01:34:50 +0000";
layers = (
{
layerId = "6EE81571-8FAC-412F-997F-533F3C178221";
paths = (
{
closed = 1;
nodes = (
"400 110 LINE",
"320 220 LINE",
"400 330 LINE",
"140 330 LINE",
"140 110 LINE"
);
},
{
closed = 1;
nodes = (
"100 0 LINE",
"100 330 LINE",
"60 330 LINE",
"60 0 LINE"
);
}
);
width = 460;
}
);
note = flag;
unicode = E72E;
category = Symbol;
},
{
glyphname = bookmark;
production = bookmark;
lastChange = "2022-10-13 01:34:50 +0000";
layers = (
{
layerId = "6EE81571-8FAC-412F-997F-533F3C178221";
paths = (
{
closed = 1;
nodes = (
"150 80 LINE",
"240 -10 LINE",
"240 330 LINE",
"60 330 LINE",
"60 -10 LINE"
);
}
);
width = 300;
}
);
note = ".notdef";
unicode = E72F;
category = Symbol;
},
{
glyphname = chat;
production = chat;
lastChange = "2022-10-13 01:51:06 +0000";
layers = (
{
layerId = "6EE81571-8FAC-412F-997F-533F3C178221";
paths = (
{
closed = 1;
nodes = (
"240 80 LINE",
"400 80 LINE SMOOTH",
"411 80 OFFCURVE",
"420 89 OFFCURVE",
"420 100 CURVE SMOOTH",
"420 310 LINE SMOOTH",
"420 321 OFFCURVE",
"411 330 OFFCURVE",
"400 330 CURVE SMOOTH",
"80 330 LINE SMOOTH",
"69 330 OFFCURVE",
"60 321 OFFCURVE",
"60 310 CURVE SMOOTH",
"60 100 LINE SMOOTH",
"60 89 OFFCURVE",
"69 80 OFFCURVE",
"80 80 CURVE SMOOTH",
"150 80 LINE",
"150 -10 LINE"
);
}
);
width = 480;
}
);
note = chat;
unicode = E730;
category = Symbol;
},
{
glyphname = edit;
production = edit;
lastChange = "2022-10-13 01:34:50 +0000";
layers = (
{
guideLines = (
{
angle = 225;
position = "{136, 72}";
}
);
layerId = "6EE81571-8FAC-412F-997F-533F3C178221";
paths = (
{
closed = 1;
nodes = (
"350 210 LINE",
"270 290 LINE",
"120 140 LINE",
"200 60 LINE"
);
},
{
closed = 1;
nodes = (
"170 30 LINE",
"90 110 LINE",
"60 0 LINE"
);
},
{
closed = 1;
nodes = (
"430 290 LINE",
"350 370 LINE",
"300 320 LINE",
"380 240 LINE"
);
}
);
width = 480;
}
);
note = edit;
unicode = E731;
category = Symbol;
},
{
glyphname = delete;
production = delete;
lastChange = "2022-10-13 01:51:14 +0000";
layers = (
{
layerId = "6EE81571-8FAC-412F-997F-533F3C178221";
paths = (
{
closed = 1;
nodes = (
"300 20 LINE SMOOTH",
"311 20 OFFCURVE",
"320 29 OFFCURVE",
"320 40 CURVE SMOOTH",
"320 240 LINE",
"360 240 LINE",
"360 280 LINE",
"280 280 LINE",
"280 320 LINE SMOOTH",
"280 331 OFFCURVE",
"271 340 OFFCURVE",
"260 340 CURVE SMOOTH",
"140 340 LINE SMOOTH",
"129 340 OFFCURVE",
"120 331 OFFCURVE",
"120 320 CURVE SMOOTH",
"120 280 LINE",
"40 280 LINE",
"40 240 LINE",
"80 240 LINE",
"80 40 LINE SMOOTH",
"80 29 OFFCURVE",
"89 20 OFFCURVE",
"100 20 CURVE SMOOTH"
);
},
{
closed = 1;
nodes = (
"120 220 LINE",
"180 220 LINE",
"180 60 LINE",
"120 60 LINE"
);
},
{
closed = 1;
nodes = (
"220 220 LINE",
"280 220 LINE",
"280 60 LINE",
"220 60 LINE"
);
},
{
closed = 1;
nodes = (
"160 300 LINE",
"240 300 LINE",
"240 260 LINE",
"160 260 LINE"
);
}
);
width = 400;
}
);
note = delete;
unicode = E732;
category = Symbol;
},
{
glyphname = show;
production = show;
lastChange = "2022-10-13 01:34:50 +0000";
layers = (
{
layerId = "6EE81571-8FAC-412F-997F-533F3C178221";
paths = (
{
closed = 1;
nodes = (
"329 45 OFFCURVE",
"413 104 OFFCURVE",
"440 180 CURVE",
"411 256 OFFCURVE",
"327 315 OFFCURVE",
"250 315 CURVE SMOOTH",
"173 315 OFFCURVE",
"89 256 OFFCURVE",
"60 180 CURVE",
"87 104 OFFCURVE",
"171 45 OFFCURVE",
"250 45 CURVE SMOOTH"
);
},
{
closed = 1;
nodes = (
"200 90 OFFCURVE",
"160 130 OFFCURVE",
"160 180 CURVE SMOOTH",
"160 230 OFFCURVE",
"200 270 OFFCURVE",
"250 270 CURVE SMOOTH",
"300 270 OFFCURVE",
"340 230 OFFCURVE",
"340 180 CURVE SMOOTH",
"340 130 OFFCURVE",
"300 90 OFFCURVE",
"250 90 CURVE SMOOTH"
);
},
{
closed = 1;
nodes = (
"278 130 OFFCURVE",
"300 152 OFFCURVE",
"300 180 CURVE SMOOTH",
"300 208 OFFCURVE",
"278 230 OFFCURVE",
"250 230 CURVE SMOOTH",
"222 230 OFFCURVE",
"200 208 OFFCURVE",
"200 180 CURVE SMOOTH",
"200 152 OFFCURVE",
"222 130 OFFCURVE",
"250 130 CURVE SMOOTH"
);
}
);
width = 500;
}
);
note = "eye-open";
unicode = E733;
category = Symbol;
},
{
glyphname = hide;
production = hide;
lastChange = "2022-10-13 01:34:50 +0000";
layers = (
{
background = {
components = (
{
name = show;
}
);
};
components = (
{
name = _part.crossbar;
}
);
layerId = "6EE81571-8FAC-412F-997F-533F3C178221";
paths = (
{
closed = 1;
nodes = (
"289 45 OFFCURVE",
"323 56 OFFCURVE",
"354 75 CURVE",
"312 115 LINE",
"296 100 OFFCURVE",
"274 90 OFFCURVE",
"250 90 CURVE SMOOTH",
"200 90 OFFCURVE",
"160 130 OFFCURVE",
"160 180 CURVE SMOOTH",
"160 202 OFFCURVE",
"168 223 OFFCURVE",
"182 239 CURVE",
"142 280 LINE",
"107 257 OFFCURVE",
"71 213 OFFCURVE",
"60 180 CURVE",
"87 104 OFFCURVE",
"171 45 OFFCURVE",
"250 45 CURVE SMOOTH"
);
},
{
closed = 1;
nodes = (
"263 130 OFFCURVE",
"276 135 OFFCURVE",
"285 145 CURVE",
"215 215 LINE",
"205 206 OFFCURVE",
"200 193 OFFCURVE",
"200 180 CURVE SMOOTH",
"200 153 OFFCURVE",
"223 130 OFFCURVE",
"250 130 CURVE SMOOTH"
);
},
{
closed = 1;
nodes = (
"413 132 OFFCURVE",
"428 155 OFFCURVE",
"440 180 CURVE",
"400 257 OFFCURVE",
"335 315 OFFCURVE",
"250 315 CURVE SMOOTH",
"233 315 OFFCURVE",
"217 313 OFFCURVE",
"202 308 CURVE",
"240 270 LINE",
"250 270 LINE SMOOTH",
"300 270 OFFCURVE",
"340 230 OFFCURVE",
"340 180 CURVE SMOOTH",
"340 170 LINE",
"397 113 LINE"
);
}
);
width = 510;
}
);
note = "eye-closed";
unicode = E734;
category = Symbol;
},
{
glyphname = lock;
production = lock;
lastChange = "2022-10-13 01:34:50 +0000";
layers = (
{
layerId = "6EE81571-8FAC-412F-997F-533F3C178221";
paths = (
{
closed = 1;
nodes = (
"270 20 LINE SMOOTH",
"287 20 OFFCURVE",
"300 33 OFFCURVE",
"300 50 CURVE SMOOTH",
"300 200 LINE SMOOTH",
"300 217 OFFCURVE",
"287 230 OFFCURVE",
"270 230 CURVE",
"270 260 LINE SMOOTH",
"270 310 OFFCURVE",
"231 350 OFFCURVE",
"182 350 CURVE SMOOTH",
"130 350 OFFCURVE",
"90 310 OFFCURVE",
"90 260 CURVE SMOOTH",
"90 230 LINE",
"73 230 OFFCURVE",
"60 217 OFFCURVE",
"60 200 CURVE SMOOTH",
"60 50 LINE SMOOTH",
"60 33 OFFCURVE",
"73 20 OFFCURVE",
"90 20 CURVE SMOOTH"
);
},
{
closed = 1;
nodes = (
"130 260 LINE SMOOTH",
"130 288 OFFCURVE",
"152 310 OFFCURVE",
"180 310 CURVE SMOOTH",
"208 310 OFFCURVE",
"230 288 OFFCURVE",
"230 260 CURVE SMOOTH",
"230 200 LINE",
"130 200 LINE"
);
}
);
width = 360;
}
);
note = lock;
unicode = E735;
category = Symbol;
},
{
glyphname = link;
production = link;
lastChange = "2022-10-13 01:34:50 +0000";
layers = (
{
background = {
paths = (
{
closed = 1;
nodes = (
"380 110 LINE SMOOTH",
"414 110 OFFCURVE",
"440 136 OFFCURVE",
"440 170 CURVE SMOOTH",
"440 230 LINE SMOOTH",
"440 264 OFFCURVE",
"414 290 OFFCURVE",
"380 290 CURVE SMOOTH",
"240 290 LINE SMOOTH",
"206 290 OFFCURVE",
"180 264 OFFCURVE",
"180 230 CURVE SMOOTH",
"180 150 LINE",
"220 150 LINE",
"220 230 LINE SMOOTH",
"220 241 OFFCURVE",
"229 250 OFFCURVE",
"240 250 CURVE SMOOTH",
"380 250 LINE SMOOTH",
"391 250 OFFCURVE",
"400 241 OFFCURVE",
"400 230 CURVE SMOOTH",
"400 170 LINE SMOOTH",
"400 159 OFFCURVE",
"391 150 OFFCURVE",
"380 150 CURVE SMOOTH",
"340 150 LINE",
"340 110 LINE"
);
},
{
closed = 1;
nodes = (
"100 250 LINE SMOOTH",
"66 250 OFFCURVE",
"40 224 OFFCURVE",
"40 190 CURVE SMOOTH",
"40 130 LINE SMOOTH",
"40 96 OFFCURVE",
"66 70 OFFCURVE",
"100 70 CURVE SMOOTH",
"240 70 LINE SMOOTH",
"274 70 OFFCURVE",
"300 96 OFFCURVE",
"300 130 CURVE SMOOTH",
"300 210 LINE",
"260 210 LINE",
"260 130 LINE SMOOTH",
"260 119 OFFCURVE",
"251 110 OFFCURVE",
"240 110 CURVE SMOOTH",
"100 110 LINE SMOOTH",
"89 110 OFFCURVE",
"80 119 OFFCURVE",
"80 130 CURVE SMOOTH",
"80 190 LINE SMOOTH",
"80 201 OFFCURVE",
"89 210 OFFCURVE",
"100 210 CURVE SMOOTH",
"140 210 LINE",
"140 250 LINE"
);
}
);
};
layerId = "6EE81571-8FAC-412F-997F-533F3C178221";
paths = (
{
closed = 1;
nodes = (
"380 130 LINE SMOOTH",
"414 130 OFFCURVE",
"440 156 OFFCURVE",
"440 190 CURVE SMOOTH",
"440 250 LINE SMOOTH",
"440 284 OFFCURVE",
"414 310 OFFCURVE",
"380 310 CURVE SMOOTH",
"240 310 LINE SMOOTH",
"206 310 OFFCURVE",
"180 284 OFFCURVE",
"180 250 CURVE SMOOTH",
"180 171 LINE SMOOTH",
"180 148 OFFCURVE",
"197 130 OFFCURVE",
"220 130 CURVE",
"220 250 LINE SMOOTH",
"220 261 OFFCURVE",
"229 270 OFFCURVE",
"240 270 CURVE SMOOTH",
"380 270 LINE SMOOTH",
"391 270 OFFCURVE",
"400 261 OFFCURVE",
"400 250 CURVE SMOOTH",
"400 190 LINE SMOOTH",
"400 179 OFFCURVE",
"391 170 OFFCURVE",
"380 170 CURVE SMOOTH",
"340 170 LINE",
"340 130 LINE"
);
},
{
closed = 1;
nodes = (
"100 230 LINE SMOOTH",
"66 230 OFFCURVE",
"40 204 OFFCURVE",
"40 170 CURVE SMOOTH",
"40 110 LINE SMOOTH",
"40 76 OFFCURVE",
"66 50 OFFCURVE",
"100 50 CURVE SMOOTH",
"240 50 LINE SMOOTH",
"274 50 OFFCURVE",
"300 76 OFFCURVE",
"300 110 CURVE SMOOTH",
"300 189 LINE SMOOTH",
"300 212 OFFCURVE",
"283 230 OFFCURVE",
"260 230 CURVE",
"260 110 LINE SMOOTH",
"260 99 OFFCURVE",
"251 90 OFFCURVE",
"240 90 CURVE SMOOTH",
"100 90 LINE SMOOTH",
"89 90 OFFCURVE",
"80 99 OFFCURVE",
"80 110 CURVE SMOOTH",
"80 170 LINE SMOOTH",
"80 181 OFFCURVE",
"89 190 OFFCURVE",
"100 190 CURVE SMOOTH",
"140 190 LINE",
"140 230 LINE"
);
}
);
width = 480;
}
);
note = chat;
unicode = E737;
category = Symbol;
},
{
glyphname = attach;
production = attach;
lastChange = "2022-10-13 07:56:48 +0000";
layers = (
{
background = {
paths = (
{
closed = 1;
nodes = (
"80 90 LINE SMOOTH",
"80 28 OFFCURVE",
"128 -20 OFFCURVE",
"190 -20 CURVE SMOOTH",
"252 -20 OFFCURVE",
"300 28 OFFCURVE",
"300 90 CURVE SMOOTH",
"300 270 LINE SMOOTH",
"300 332 OFFCURVE",
"252 380 OFFCURVE",
"190 380 CURVE SMOOTH",
"128 380 OFFCURVE",
"80 332 OFFCURVE",
"80 270 CURVE",
"123 291 LINE",
"132 320 OFFCURVE",
"158 340 OFFCURVE",
"190 340 CURVE SMOOTH",
"229 340 OFFCURVE",
"260 309 OFFCURVE",
"260 270 CURVE SMOOTH",
"260 90 LINE SMOOTH",
"260 51 OFFCURVE",
"229 20 OFFCURVE",
"190 20 CURVE SMOOTH",
"151 20 OFFCURVE",
"120 51 OFFCURVE",
"120 90 CURVE SMOOTH",
"120 190 LINE SMOOTH",
"120 207 OFFCURVE",
"133 220 OFFCURVE",
"150 220 CURVE SMOOTH",
"167 220 OFFCURVE",
"180 207 OFFCURVE",
"180 190 CURVE SMOOTH",
"180 120 LINE",
"220 120 LINE",
"220 190 LINE SMOOTH",
"220 229 OFFCURVE",
"189 260 OFFCURVE",
"150 260 CURVE SMOOTH",
"111 260 OFFCURVE",
"80 229 OFFCURVE",
"80 190 CURVE SMOOTH"
);
}
);
};
layerId = "6EE81571-8FAC-412F-997F-533F3C178221";
paths = (
{
closed = 1;
nodes = (
"80 90 LINE SMOOTH",
"80 34 OFFCURVE",
"124 -10 OFFCURVE",
"180 -10 CURVE SMOOTH",
"200 -10 LINE SMOOTH",
"256 -10 OFFCURVE",
"300 34 OFFCURVE",
"300 90 CURVE SMOOTH",
"300 270 LINE SMOOTH",
"300 326 OFFCURVE",
"256 370 OFFCURVE",
"200 370 CURVE SMOOTH",
"170 370 LINE SMOOTH",
"120 370 OFFCURVE",
"80 330 OFFCURVE",
"80 280 CURVE",
"120 280 LINE",
"120 308 OFFCURVE",
"142 330 OFFCURVE",
"170 330 CURVE SMOOTH",
"200 330 LINE SMOOTH",
"234 330 OFFCURVE",
"260 304 OFFCURVE",
"260 270 CURVE SMOOTH",
"260 90 LINE SMOOTH",
"260 56 OFFCURVE",
"234 30 OFFCURVE",
"200 30 CURVE SMOOTH",
"180 30 LINE SMOOTH",
"146 30 OFFCURVE",
"120 56 OFFCURVE",
"120 90 CURVE SMOOTH",
"120 200 LINE SMOOTH",
"120 211 OFFCURVE",
"129 220 OFFCURVE",
"140 220 CURVE SMOOTH",
"160 220 LINE SMOOTH",
"171 220 OFFCURVE",
"180 211 OFFCURVE",
"180 200 CURVE SMOOTH",
"180 120 LINE",
"220 120 LINE",
"220 200 LINE SMOOTH",
"220 234 OFFCURVE",
"194 260 OFFCURVE",
"160 260 CURVE SMOOTH",
"140 260 LINE SMOOTH",
"106 260 OFFCURVE",
"80 234 OFFCURVE",
"80 200 CURVE SMOOTH"
);
}
);
width = 380;
}
);
note = chat;
unicode = E776;
category = Symbol;
},
{
glyphname = file;
production = file;
lastChange = "2022-10-13 14:01:30 +0000";
layers = (
{
layerId = "6EE81571-8FAC-412F-997F-533F3C178221";
paths = (
{
closed = 1;
nodes = (
"340 0 LINE SMOOTH",
"351 0 OFFCURVE",
"360 9 OFFCURVE",
"360 20 CURVE SMOOTH",
"360 246 LINE SMOOTH",
"360 254 OFFCURVE",
"356 264 OFFCURVE",
"350 270 CURVE SMOOTH",
"270 350 LINE SMOOTH",
"264 356 OFFCURVE",
"254 360 OFFCURVE",
"246 360 CURVE SMOOTH",
"100 360 LINE SMOOTH",
"89 360 OFFCURVE",
"80 351 OFFCURVE",
"80 340 CURVE SMOOTH",
"80 20 LINE SMOOTH",
"80 9 OFFCURVE",
"89 0 OFFCURVE",
"100 0 CURVE SMOOTH"
);
},
{
closed = 1;
nodes = (
"120 320 LINE",
"200 320 LINE",
"200 200 LINE",
"320 200 LINE",
"320 40 LINE",
"120 40 LINE"
);
},
{
closed = 1;
nodes = (
"240 324 LINE",
"324 240 LINE",
"240 240 LINE"
);
}
);
width = 440;
}
);
note = document;
unicode = E73A;
category = Symbol;
},
{
glyphname = folder;
production = folder;
lastChange = "2022-10-13 13:56:12 +0000";
layers = (
{
layerId = "6EE81571-8FAC-412F-997F-533F3C178221";
paths = (
{
closed = 1;
nodes = (
"420 260 LINE SMOOTH",
"420 271 OFFCURVE",
"411 280 OFFCURVE",
"400 280 CURVE SMOOTH",
"250 280 LINE SMOOTH",
"224 280 OFFCURVE",
"206 340 OFFCURVE",
"170 340 CURVE SMOOTH",
"80 340 LINE SMOOTH",
"69 340 OFFCURVE",
"60 331 OFFCURVE",
"60 320 CURVE SMOOTH",
"60 60 LINE SMOOTH",
"60 49 OFFCURVE",
"69 40 OFFCURVE",
"80 40 CURVE SMOOTH",
"400 40 LINE SMOOTH",
"411 40 OFFCURVE",
"420 49 OFFCURVE",
"420 60 CURVE SMOOTH"
);
},
{
closed = 1;
nodes = (
"100 80 LINE",
"100 300 LINE",
"160 300 LINE SMOOTH",
"186 300 OFFCURVE",
"204 240 OFFCURVE",
"240 240 CURVE SMOOTH",
"380 240 LINE",
"380 80 LINE"
);
}
);
width = 480;
}
);
note = document;
unicode = E777;
category = Symbol;
},
{
glyphname = image;
production = image;
lastChange = "2022-10-13 13:54:15 +0000";
layers = (
{
background = {
paths = (
{
closed = 1;
nodes = (
"400 40 LINE SMOOTH",
"411 40 OFFCURVE",
"420 49 OFFCURVE",
"420 60 CURVE SMOOTH",
"420 300 LINE SMOOTH",
"420 311 OFFCURVE",
"411 320 OFFCURVE",
"400 320 CURVE SMOOTH",
"80 320 LINE SMOOTH",
"69 320 OFFCURVE",
"60 311 OFFCURVE",
"60 300 CURVE SMOOTH",
"60 60 LINE SMOOTH",
"60 49 OFFCURVE",
"69 40 OFFCURVE",
"80 40 CURVE SMOOTH"
);
},
{
closed = 1;
nodes = (
"170 160 LINE",
"230 110 LINE",
"320 200 LINE",
"380 140 LINE",
"380 80 LINE",
"90 80 LINE"
);
},
{
closed = 1;
nodes = (
"148 200 OFFCURVE",
"130 218 OFFCURVE",
"130 240 CURVE SMOOTH",
"130 262 OFFCURVE",
"148 280 OFFCURVE",
"170 280 CURVE SMOOTH",
"192 280 OFFCURVE",
"210 262 OFFCURVE",
"210 240 CURVE SMOOTH",
"210 218 OFFCURVE",
"192 200 OFFCURVE",
"170 200 CURVE SMOOTH"
);
}
);
};
layerId = "6EE81571-8FAC-412F-997F-533F3C178221";
paths = (
{
closed = 1;
nodes = (
"420 20 LINE SMOOTH",
"431 20 OFFCURVE",
"440 29 OFFCURVE",
"440 40 CURVE SMOOTH",
"440 320 LINE SMOOTH",
"440 331 OFFCURVE",
"431 340 OFFCURVE",
"420 340 CURVE SMOOTH",
"60 340 LINE SMOOTH",
"49 340 OFFCURVE",
"40 331 OFFCURVE",
"40 320 CURVE SMOOTH",
"40 40 LINE SMOOTH",
"40 29 OFFCURVE",
"49 20 OFFCURVE",
"60 20 CURVE SMOOTH"
);
},
{
closed = 1;
nodes = (
"160 140 LINE",
"220 90 LINE",
"310 180 LINE",
"400 90 LINE",
"400 60 LINE",
"80 60 LINE"
);
},
{
closed = 1;
nodes = (
"138 190 OFFCURVE",
"120 208 OFFCURVE",
"120 230 CURVE SMOOTH",
"120 252 OFFCURVE",
"138 270 OFFCURVE",
"160 270 CURVE SMOOTH",
"182 270 OFFCURVE",
"200 252 OFFCURVE",
"200 230 CURVE SMOOTH",
"200 208 OFFCURVE",
"182 190 OFFCURVE",
"160 190 CURVE SMOOTH"
);
}
);
width = 480;
}
);
note = "image-reversed";
unicode = E73B;
category = Symbol;
},
{
glyphname = video;
production = video;
lastChange = "2022-10-13 13:58:46 +0000";
layers = (
{
layerId = "6EE81571-8FAC-412F-997F-533F3C178221";
paths = (
{
closed = 1;
nodes = (
"356 -10 OFFCURVE",
"440 74 OFFCURVE",
"440 180 CURVE SMOOTH",
"440 286 OFFCURVE",
"356 370 OFFCURVE",
"250 370 CURVE SMOOTH",
"144 370 OFFCURVE",
"60 286 OFFCURVE",
"60 180 CURVE SMOOTH",
"60 74 OFFCURVE",
"144 -10 OFFCURVE",
"250 -10 CURVE SMOOTH"
);
},
{
closed = 1;
nodes = (
"200 280 LINE",
"340 180 LINE",
"200 80 LINE"
);
}
);
width = 500;
}
);
note = video;
unicode = E73C;
category = Symbol;
},
{
glyphname = audio;
production = audio;
lastChange = "2022-10-13 11:30:12 +0000";
layers = (
{
layerId = "6EE81571-8FAC-412F-997F-533F3C178221";
paths = (
{
closed = 1;
nodes = (
"180 20 LINE",
"180 160 LINE",
"100 160 LINE",
"100 180 LINE SMOOTH",
"100 253 OFFCURVE",
"157 310 OFFCURVE",
"230 310 CURVE SMOOTH",
"303 310 OFFCURVE",
"360 253 OFFCURVE",
"360 180 CURVE SMOOTH",
"360 160 LINE",
"280 160 LINE",
"280 20 LINE",
"340 20 LINE SMOOTH",
"374 20 OFFCURVE",
"400 46 OFFCURVE",
"400 80 CURVE SMOOTH",
"400 180 LINE SMOOTH",
"400 275 OFFCURVE",
"325 350 OFFCURVE",
"230 350 CURVE SMOOTH",
"135 350 OFFCURVE",
"60 275 OFFCURVE",
"60 180 CURVE SMOOTH",
"60 80 LINE SMOOTH",
"60 46 OFFCURVE",
"86 20 OFFCURVE",
"120 20 CURVE SMOOTH"
);
}
);
width = 460;
}
);
note = audio;
unicode = E73D;
category = Symbol;
},
{
glyphname = microphone;
production = microphone;
lastChange = "2022-10-13 07:56:48 +0000";
layers = (
{
layerId = "6EE81571-8FAC-412F-997F-533F3C178221";
paths = (
{
closed = 1;
nodes = (
"160 300 LINE SMOOTH",
"160 328 OFFCURVE",
"182 350 OFFCURVE",
"210 350 CURVE SMOOTH",
"238 350 OFFCURVE",
"260 328 OFFCURVE",
"260 300 CURVE SMOOTH",
"260 200 LINE SMOOTH",
"260 172 OFFCURVE",
"238 150 OFFCURVE",
"210 150 CURVE SMOOTH",
"182 150 OFFCURVE",
"160 172 OFFCURVE",
"160 200 CURVE SMOOTH"
);
},
{
closed = 1;
nodes = (
"80 199 LINE SMOOTH",
"80 127 OFFCURVE",
"137 70 OFFCURVE",
"210 70 CURVE SMOOTH",
"283 70 OFFCURVE",
"340 127 OFFCURVE",
"340 200 CURVE SMOOTH",
"340 230 LINE",
"300 230 LINE",
"300 200 LINE SMOOTH",
"300 150 OFFCURVE",
"260 110 OFFCURVE",
"210 110 CURVE SMOOTH",
"160 110 OFFCURVE",
"120 150 OFFCURVE",
"120 200 CURVE SMOOTH",
"120 230 LINE",
"80 230 LINE"
);
},
{
closed = 1;
nodes = (
"140 0 LINE",
"280 0 LINE",
"280 40 LINE",
"140 40 LINE"
);
},
{
closed = 1;
nodes = (
"230 20 LINE",
"230 90 LINE",
"190 90 LINE",
"190 20 LINE"
);
}
);
width = 440;
}
);
note = document;
unicode = E778;
category = Symbol;
},
{
glyphname = "video-camera";
production = "video-camera";
lastChange = "2022-10-13 07:56:48 +0000";
layers = (
{
layerId = "6EE81571-8FAC-412F-997F-533F3C178221";
paths = (
{
closed = 1;
nodes = (
"60 260 LINE SMOOTH",
"60 282 OFFCURVE",
"78 300 OFFCURVE",
"100 300 CURVE SMOOTH",
"300 300 LINE SMOOTH",
"322 300 OFFCURVE",
"340 282 OFFCURVE",
"340 260 CURVE SMOOTH",
"340 120 LINE SMOOTH",
"340 98 OFFCURVE",
"322 80 OFFCURVE",
"300 80 CURVE SMOOTH",
"100 80 LINE SMOOTH",
"78 80 OFFCURVE",
"60 98 OFFCURVE",
"60 120 CURVE SMOOTH"
);
},
{
closed = 1;
nodes = (
"400 280 LINE",
"420 280 LINE",
"420 100 LINE",
"400 100 LINE",
"310 190 LINE"
);
}
);
width = 480;
}
);
note = document;
unicode = E779;
category = Symbol;
},
{
glyphname = print;
production = print;
lastChange = "2022-10-13 01:51:27 +0000";
layers = (
{
layerId = "6EE81571-8FAC-412F-997F-533F3C178221";
paths = (
{
closed = 1;
nodes = (
"320 0 LINE SMOOTH",
"331 0 OFFCURVE",
"340 9 OFFCURVE",
"340 20 CURVE SMOOTH",
"340 60 LINE",
"360 60 LINE SMOOTH",
"377 60 OFFCURVE",
"390 73 OFFCURVE",
"390 90 CURVE SMOOTH",
"390 170 LINE SMOOTH",
"390 187 OFFCURVE",
"377 200 OFFCURVE",
"360 200 CURVE SMOOTH",
"340 200 LINE",
"340 320 LINE SMOOTH",
"340 331 OFFCURVE",
"331 340 OFFCURVE",
"320 340 CURVE SMOOTH",
"100 340 LINE SMOOTH",
"89 340 OFFCURVE",
"80 331 OFFCURVE",
"80 320 CURVE SMOOTH",
"80 200 LINE",
"60 200 LINE SMOOTH",
"43 200 OFFCURVE",
"30 187 OFFCURVE",
"30 170 CURVE SMOOTH",
"30 90 LINE SMOOTH",
"30 73 OFFCURVE",
"43 60 OFFCURVE",
"60 60 CURVE SMOOTH",
"80 60 LINE",
"80 20 LINE SMOOTH",
"80 9 OFFCURVE",
"89 0 OFFCURVE",
"100 0 CURVE SMOOTH"
);
},
{
closed = 1;
nodes = (
"120 100 LINE",
"300 100 LINE",
"300 40 LINE",
"120 40 LINE"
);
},
{
closed = 1;
nodes = (
"120 300 LINE",
"300 300 LINE",
"300 180 LINE",
"120 180 LINE"
);
},
{
closed = 1;
nodes = (
"329 110 OFFCURVE",
"320 119 OFFCURVE",
"320 130 CURVE SMOOTH",
"320 141 OFFCURVE",
"329 150 OFFCURVE",
"340 150 CURVE SMOOTH",
"351 150 OFFCURVE",
"360 141 OFFCURVE",
"360 130 CURVE SMOOTH",
"360 119 OFFCURVE",
"351 110 OFFCURVE",
"340 110 CURVE SMOOTH"
);
}
);
width = 420;
}
);
note = document;
unicode = E73E;
category = Symbol;
},
{
glyphname = menu;
production = menu;
lastChange = "2022-10-13 01:34:50 +0000";
layers = (
{
background = {
paths = (
{
closed = 1;
nodes = (
"420 300 LINE",
"420 345 LINE",
"60 345 LINE",
"60 300 LINE"
);
},
{
closed = 1;
nodes = (
"420 15 LINE",
"420 60 LINE",
"60 60 LINE",
"60 15 LINE"
);
},
{
closed = 1;
nodes = (
"420 158 LINE",
"420 203 LINE",
"60 203 LINE",
"60 158 LINE"
);
}
);
};
layerId = "6EE81571-8FAC-412F-997F-533F3C178221";
paths = (
{
closed = 1;
nodes = (
"420 280 LINE",
"420 320 LINE",
"60 320 LINE",
"60 280 LINE"
);
},
{
closed = 1;
nodes = (
"420 40 LINE",
"420 80 LINE",
"60 80 LINE",
"60 40 LINE"
);
},
{
closed = 1;
nodes = (
"420 160 LINE",
"420 200 LINE",
"60 200 LINE",
"60 160 LINE"
);
}
);
width = 480;
}
);
note = menu;
unicode = E73F;
category = Symbol;
},
{
glyphname = bars;
production = bars;
lastChange = "2022-10-13 01:34:50 +0000";
layers = (
{
layerId = "6EE81571-8FAC-412F-997F-533F3C178221";
paths = (
{
closed = 1;
nodes = (
"350 25 LINE",
"350 345 LINE",
"310 345 LINE",
"310 25 LINE"
);
},
{
closed = 1;
nodes = (
"110 25 LINE",
"110 345 LINE",
"70 345 LINE",
"70 25 LINE"
);
},
{
closed = 1;
nodes = (
"230 25 LINE",
"230 345 LINE",
"190 345 LINE",
"190 25 LINE"
);
}
);
width = 420;
}
);
note = "drag-vertical";
unicode = E740;
category = Symbol;
},
{
glyphname = "opts-h";
production = "opts-h";
lastChange = "2022-10-13 01:34:50 +0000";
layers = (
{
layerId = "6EE81571-8FAC-412F-997F-533F3C178221";
paths = (
{
closed = 1;
nodes = (
"478 130 OFFCURVE",
"500 152 OFFCURVE",
"500 180 CURVE SMOOTH",
"500 208 OFFCURVE",
"478 230 OFFCURVE",
"450 230 CURVE SMOOTH",
"422 230 OFFCURVE",
"400 208 OFFCURVE",
"400 180 CURVE SMOOTH",
"400 152 OFFCURVE",
"422 130 OFFCURVE",
"450 130 CURVE SMOOTH"
);
},
{
closed = 1;
nodes = (
"158 130 OFFCURVE",
"180 152 OFFCURVE",
"180 180 CURVE SMOOTH",
"180 208 OFFCURVE",
"158 230 OFFCURVE",
"130 230 CURVE SMOOTH",
"102 230 OFFCURVE",
"80 208 OFFCURVE",
"80 180 CURVE SMOOTH",
"80 152 OFFCURVE",
"102 130 OFFCURVE",
"130 130 CURVE SMOOTH"
);
},
{
closed = 1;
nodes = (
"318 130 OFFCURVE",
"340 152 OFFCURVE",
"340 180 CURVE SMOOTH",
"340 208 OFFCURVE",
"318 230 OFFCURVE",
"290 230 CURVE SMOOTH",
"262 230 OFFCURVE",
"240 208 OFFCURVE",
"240 180 CURVE SMOOTH",
"240 152 OFFCURVE",
"262 130 OFFCURVE",
"290 130 CURVE SMOOTH"
);
}
);
width = 580;
}
);
note = more;
unicode = E742;
category = Symbol;
},
{
glyphname = home;
production = home;
lastChange = "2022-10-13 07:56:48 +0000";
layers = (
{
layerId = "6EE81571-8FAC-412F-997F-533F3C178221";
paths = (
{
closed = 1;
nodes = (
"400 0 LINE SMOOTH",
"411 0 OFFCURVE",
"420 9 OFFCURVE",
"420 20 CURVE SMOOTH",
"420 195 LINE SMOOTH",
"420 204 OFFCURVE",
"415 215 OFFCURVE",
"409 220 CURVE SMOOTH",
"254 353 LINE SMOOTH",
"250 357 OFFCURVE",
"244 360 OFFCURVE",
"240 360 CURVE SMOOTH",
"236 360 OFFCURVE",
"230 357 OFFCURVE",
"226 353 CURVE SMOOTH",
"71 220 LINE SMOOTH",
"65 215 OFFCURVE",
"60 204 OFFCURVE",
"60 195 CURVE SMOOTH",
"60 20 LINE SMOOTH",
"60 9 OFFCURVE",
"69 0 OFFCURVE",
"80 0 CURVE SMOOTH"
);
},
{
closed = 1;
nodes = (
"69 40 OFFCURVE",
"100 9 OFFCURVE",
"100 20 CURVE SMOOTH",
"100 195 LINE SMOOTH",
"100 197 OFFCURVE",
"96 188 OFFCURVE",
"97 189 CURVE SMOOTH",
"246 317 LINE",
"261 333 OFFCURVE",
"255 320 OFFCURVE",
"240 320 CURVE SMOOTH",
"225 320 OFFCURVE",
"219 333 OFFCURVE",
"234 317 CURVE",
"383 189 LINE SMOOTH",
"384 188 OFFCURVE",
"380 197 OFFCURVE",
"380 195 CURVE SMOOTH",
"380 20 LINE SMOOTH",
"380 9 OFFCURVE",
"411 40 OFFCURVE",
"400 40 CURVE SMOOTH",
"80 40 LINE SMOOTH"
);
},
{
closed = 1;
nodes = (
"200 40 LINE",
"280 40 LINE",
"280 140 LINE",
"200 140 LINE"
);
}
);
width = 480;
}
);
note = square;
unicode = E77A;
category = Symbol;
},
{
glyphname = cancel;
production = cancel;
lastChange = "2022-10-13 01:34:50 +0000";
layers = (
{
layerId = "6EE81571-8FAC-412F-997F-533F3C178221";
paths = (
{
closed = 1;
nodes = (
"210 150 LINE",
"340 30 LINE",
"370 60 LINE",
"240 180 LINE",
"370 300 LINE",
"340 330 LINE",
"210 210 LINE",
"90 330 LINE",
"60 300 LINE",
"180 180 LINE",
"60 60 LINE",
"90 30 LINE"
);
}
);
width = 428;
}
);
note = cancel;
unicode = E741;
category = Symbol;
},
{
glyphname = cog;
production = cog;
lastChange = "2022-10-13 01:34:50 +0000";
layers = (
{
layerId = "6EE81571-8FAC-412F-997F-533F3C178221";
paths = (
{
closed = 1;
nodes = (
"286 0 LINE",
"309 77 LINE",
"387 58 LINE",
"423 122 LINE",
"368 180 LINE",
"423 238 LINE",
"387 302 LINE",
"309 283 LINE",
"286 360 LINE",
"214 360 LINE",
"191 283 LINE",
"113 302 LINE",
"77 238 LINE",
"132 180 LINE",
"77 122 LINE",
"113 58 LINE",
"191 77 LINE",
"214 0 LINE"
);
},
{
closed = 1;
nodes = (
"217 120 OFFCURVE",
"190 147 OFFCURVE",
"190 180 CURVE SMOOTH",
"190 213 OFFCURVE",
"217 240 OFFCURVE",
"250 240 CURVE SMOOTH",
"283 240 OFFCURVE",
"310 213 OFFCURVE",
"310 180 CURVE SMOOTH",
"310 147 OFFCURVE",
"283 120 OFFCURVE",
"250 120 CURVE SMOOTH"
);
}
);
width = 500;
}
);
note = cog;
unicode = E736;
category = Symbol;
},
{
glyphname = search;
production = search;
lastChange = "2022-10-13 01:34:50 +0000";
layers = (
{
layerId = "6EE81571-8FAC-412F-997F-533F3C178221";
paths = (
{
closed = 1;
nodes = (
"294 60 OFFCURVE",
"360 126 OFFCURVE",
"360 210 CURVE SMOOTH",
"360 294 OFFCURVE",
"294 360 OFFCURVE",
"210 360 CURVE SMOOTH",
"126 360 OFFCURVE",
"60 294 OFFCURVE",
"60 210 CURVE SMOOTH",
"60 126 OFFCURVE",
"126 60 OFFCURVE",
"210 60 CURVE SMOOTH"
);
},
{
closed = 1;
nodes = (
"148 100 OFFCURVE",
"100 148 OFFCURVE",
"100 210 CURVE SMOOTH",
"100 272 OFFCURVE",
"148 320 OFFCURVE",
"210 320 CURVE SMOOTH",
"272 320 OFFCURVE",
"320 272 OFFCURVE",
"320 210 CURVE SMOOTH",
"320 148 OFFCURVE",
"272 100 OFFCURVE",
"210 100 CURVE SMOOTH"
);
},
{
closed = 1;
nodes = (
"420 30 LINE",
"310 140 LINE",
"280 110 LINE",
"390 0 LINE"
);
}
);
width = 480;
}
);
note = search;
unicode = E744;
category = Symbol;
},
{
glyphname = "zoom-in";
production = "zoom-in";
lastChange = "2022-10-13 01:34:50 +0000";
layers = (
{
layerId = "6EE81571-8FAC-412F-997F-533F3C178221";
paths = (
{
closed = 1;
nodes = (
"294 60 OFFCURVE",
"360 126 OFFCURVE",
"360 210 CURVE SMOOTH",
"360 294 OFFCURVE",
"294 360 OFFCURVE",
"210 360 CURVE SMOOTH",
"126 360 OFFCURVE",
"60 294 OFFCURVE",
"60 210 CURVE SMOOTH",
"60 126 OFFCURVE",
"126 60 OFFCURVE",
"210 60 CURVE SMOOTH"
);
},
{
closed = 1;
nodes = (
"190 190 LINE",
"140 190 LINE",
"140 230 LINE",
"190 230 LINE",
"190 280 LINE",
"230 280 LINE",
"230 230 LINE",
"280 230 LINE",
"280 190 LINE",
"230 190 LINE",
"230 140 LINE",
"190 140 LINE"
);
},
{
closed = 1;
nodes = (
"420 30 LINE",
"310 140 LINE",
"280 110 LINE",
"390 0 LINE"
);
}
);
width = 480;
}
);
note = "zoom-in";
unicode = E745;
category = Symbol;
},
{
glyphname = "zoom-out";
production = "zoom-out";
lastChange = "2022-10-13 01:34:50 +0000";
layers = (
{
layerId = "6EE81571-8FAC-412F-997F-533F3C178221";
paths = (
{
closed = 1;
nodes = (
"294 60 OFFCURVE",
"360 126 OFFCURVE",
"360 210 CURVE SMOOTH",
"360 294 OFFCURVE",
"294 360 OFFCURVE",
"210 360 CURVE SMOOTH",
"126 360 OFFCURVE",
"60 294 OFFCURVE",
"60 210 CURVE SMOOTH",
"60 126 OFFCURVE",
"126 60 OFFCURVE",
"210 60 CURVE SMOOTH"
);
},
{
closed = 1;
nodes = (
"140 230 LINE",
"280 230 LINE",
"280 190 LINE",
"140 190 LINE"
);
},
{
closed = 1;
nodes = (
"420 30 LINE",
"310 140 LINE",
"280 110 LINE",
"390 0 LINE"
);
}
);
width = 480;
}
);
note = "zoom-out";
unicode = E746;
category = Symbol;
},
{
glyphname = contract;
production = contract;
lastChange = "2022-10-13 01:34:50 +0000";
layers = (
{
layerId = "6EE81571-8FAC-412F-997F-533F3C178221";
paths = (
{
closed = 1;
nodes = (
"420 210 LINE",
"420 250 LINE",
"340 250 LINE",
"340 320 LINE",
"300 320 LINE",
"300 210 LINE"
);
},
{
closed = 1;
nodes = (
"180 50 LINE",
"180 150 LINE",
"60 150 LINE",
"60 110 LINE",
"140 110 LINE",
"140 50 LINE"
);
},
{
closed = 1;
nodes = (
"180 210 LINE",
"180 320 LINE",
"140 320 LINE",
"140 250 LINE",
"60 250 LINE",
"60 210 LINE"
);
},
{
closed = 1;
nodes = (
"340 50 LINE",
"340 110 LINE",
"420 110 LINE",
"420 150 LINE",
"300 150 LINE",
"300 50 LINE"
);
}
);
width = 480;
}
);
note = contract;
unicode = E747;
category = Symbol;
},
{
glyphname = expand;
production = expand;
lastChange = "2022-10-13 01:34:50 +0000";
layers = (
{
layerId = "6EE81571-8FAC-412F-997F-533F3C178221";
paths = (
{
closed = 1;
nodes = (
"420 210 LINE",
"420 320 LINE",
"300 320 LINE",
"300 280 LINE",
"380 280 LINE",
"380 210 LINE"
);
},
{
closed = 1;
nodes = (
"180 50 LINE",
"180 90 LINE",
"100 90 LINE",
"100 150 LINE",
"60 150 LINE",
"60 50 LINE"
);
},
{
closed = 1;
nodes = (
"100 210 LINE",
"100 280 LINE",
"180 280 LINE",
"180 320 LINE",
"60 320 LINE",
"60 210 LINE"
);
},
{
closed = 1;
nodes = (
"420 50 LINE",
"420 150 LINE",
"380 150 LINE",
"380 90 LINE",
"300 90 LINE",
"300 50 LINE"
);
}
);
width = 480;
}
);
note = expand;
unicode = E748;
category = Symbol;
},
{
glyphname = grid;
production = grid;
lastChange = "2022-10-13 10:19:43 +0000";
layers = (
{
layerId = "6EE81571-8FAC-412F-997F-533F3C178221";
paths = (
{
closed = 1;
nodes = (
"400 200 LINE",
"400 340 LINE",
"260 340 LINE",
"260 200 LINE"
);
},
{
closed = 1;
nodes = (
"220 20 LINE",
"220 160 LINE",
"80 160 LINE",
"80 20 LINE"
);
},
{
closed = 1;
nodes = (
"220 200 LINE",
"220 340 LINE",
"80 340 LINE",
"80 200 LINE"
);
},
{
closed = 1;
nodes = (
"400 20 LINE",
"400 160 LINE",
"260 160 LINE",
"260 20 LINE"
);
}
);
width = 480;
}
);
note = chapters;
unicode = E749;
category = Symbol;
},
{
glyphname = matrix;
production = matrix;
lastChange = "2022-10-13 10:19:43 +0000";
layers = (
{
layerId = "6EE81571-8FAC-412F-997F-533F3C178221";
paths = (
{
closed = 1;
nodes = (
"400 260 LINE",
"400 340 LINE",
"320 340 LINE",
"320 260 LINE"
);
},
{
closed = 1;
nodes = (
"160 20 LINE",
"160 100 LINE",
"80 100 LINE",
"80 20 LINE"
);
},
{
closed = 1;
nodes = (
"280 20 LINE",
"280 100 LINE",
"200 100 LINE",
"200 20 LINE"
);
},
{
closed = 1;
nodes = (
"160 140 LINE",
"160 220 LINE",
"80 220 LINE",
"80 140 LINE"
);
},
{
closed = 1;
nodes = (
"400 20 LINE",
"400 100 LINE",
"320 100 LINE",
"320 20 LINE"
);
},
{
closed = 1;
nodes = (
"280 140 LINE",
"280 220 LINE",
"200 220 LINE",
"200 140 LINE"
);
},
{
closed = 1;
nodes = (
"160 260 LINE",
"160 340 LINE",
"80 340 LINE",
"80 260 LINE"
);
},
{
closed = 1;
nodes = (
"400 140 LINE",
"400 220 LINE",
"320 220 LINE",
"320 140 LINE"
);
},
{
closed = 1;
nodes = (
"280 260 LINE",
"280 340 LINE",
"200 340 LINE",
"200 260 LINE"
);
}
);
width = 480;
}
);
note = chapters;
unicode = E74A;
category = Symbol;
},
{
glyphname = list;
production = list;
lastChange = "2022-10-13 07:56:48 +0000";
layers = (
{
layerId = "6EE81571-8FAC-412F-997F-533F3C178221";
paths = (
{
closed = 1;
nodes = (
"420 280 LINE",
"420 340 LINE",
"180 340 LINE",
"180 280 LINE"
);
},
{
closed = 1;
nodes = (
"120 20 LINE",
"120 80 LINE",
"60 80 LINE",
"60 20 LINE"
);
},
{
closed = 1;
nodes = (
"120 150 LINE",
"120 210 LINE",
"60 210 LINE",
"60 150 LINE"
);
},
{
closed = 1;
nodes = (
"420 20 LINE",
"420 80 LINE",
"180 80 LINE",
"180 20 LINE"
);
},
{
closed = 1;
nodes = (
"120 280 LINE",
"120 340 LINE",
"60 340 LINE",
"60 280 LINE"
);
},
{
closed = 1;
nodes = (
"420 150 LINE",
"420 210 LINE",
"180 210 LINE",
"180 150 LINE"
);
}
);
width = 480;
}
);
note = chapters;
unicode = E77B;
category = Symbol;
},
{
glyphname = box;
production = box;
lastChange = "2022-10-13 01:52:42 +0000";
layers = (
{
layerId = "6EE81571-8FAC-412F-997F-533F3C178221";
paths = (
{
closed = 1;
nodes = (
"400 0 LINE SMOOTH",
"411 0 OFFCURVE",
"420 9 OFFCURVE",
"420 20 CURVE SMOOTH",
"420 340 LINE SMOOTH",
"420 351 OFFCURVE",
"411 360 OFFCURVE",
"400 360 CURVE SMOOTH",
"80 360 LINE SMOOTH",
"69 360 OFFCURVE",
"60 351 OFFCURVE",
"60 340 CURVE SMOOTH",
"60 20 LINE SMOOTH",
"60 9 OFFCURVE",
"69 0 OFFCURVE",
"80 0 CURVE SMOOTH"
);
},
{
closed = 1;
nodes = (
"100 320 LINE",
"380 320 LINE",
"380 40 LINE",
"100 40 LINE"
);
}
);
width = 480;
}
);
note = square;
unicode = E750;
category = Symbol;
},
{
glyphname = "box-full";
production = "box-full";
lastChange = "2022-10-13 01:52:33 +0000";
layers = (
{
layerId = "6EE81571-8FAC-412F-997F-533F3C178221";
paths = (
{
closed = 1;
nodes = (
"400 0 LINE SMOOTH",
"411 0 OFFCURVE",
"420 9 OFFCURVE",
"420 20 CURVE SMOOTH",
"420 340 LINE SMOOTH",
"420 351 OFFCURVE",
"411 360 OFFCURVE",
"400 360 CURVE SMOOTH",
"80 360 LINE SMOOTH",
"69 360 OFFCURVE",
"60 351 OFFCURVE",
"60 340 CURVE SMOOTH",
"60 20 LINE SMOOTH",
"60 9 OFFCURVE",
"69 0 OFFCURVE",
"80 0 CURVE SMOOTH"
);
}
);
width = 480;
}
);
note = square;
unicode = E751;
category = Symbol;
},
{
glyphname = "box-plus";
production = "box-plus";
lastChange = "2022-10-13 01:34:50 +0000";
layers = (
{
components = (
{
name = "box-full";
}
);
layerId = "6EE81571-8FAC-412F-997F-533F3C178221";
paths = (
{
closed = 1;
nodes = (
"220 160 LINE",
"140 160 LINE",
"140 200 LINE",
"220 200 LINE",
"220 280 LINE",
"260 280 LINE",
"260 200 LINE",
"340 200 LINE",
"340 160 LINE",
"260 160 LINE",
"260 80 LINE",
"220 80 LINE"
);
}
);
width = 480;
}
);
note = square;
unicode = E752;
category = Symbol;
},
{
glyphname = "box-minus";
production = "box-minus";
lastChange = "2022-10-13 01:34:50 +0000";
layers = (
{
components = (
{
name = "box-full";
}
);
layerId = "6EE81571-8FAC-412F-997F-533F3C178221";
paths = (
{
closed = 1;
nodes = (
"140 200 LINE",
"340 200 LINE",
"340 160 LINE",
"140 160 LINE"
);
}
);
width = 480;
}
);
note = square;
unicode = E753;
category = Symbol;
},
{
glyphname = "box-tick";
production = "box-tick";
lastChange = "2022-10-13 01:34:50 +0000";
layers = (
{
components = (
{
name = "box-full";
}
);
layerId = "6EE81571-8FAC-412F-997F-533F3C178221";
paths = (
{
closed = 1;
nodes = (
"130 180 LINE",
"160 210 LINE",
"217 153 LINE",
"320 270 LINE",
"350 240 LINE",
"218 90 LINE"
);
}
);
width = 480;
}
);
note = square;
unicode = E754;
category = Symbol;
},
{
glyphname = "box-cross";
production = "box-cross";
lastChange = "2022-10-13 01:34:50 +0000";
layers = (
{
components = (
{
name = "box-full";
}
);
layerId = "6EE81571-8FAC-412F-997F-533F3C178221";
paths = (
{
closed = 1;
nodes = (
"150 120 LINE",
"210 180 LINE",
"150 240 LINE",
"180 270 LINE",
"240 210 LINE",
"300 270 LINE",
"330 240 LINE",
"270 180 LINE",
"330 120 LINE",
"300 90 LINE",
"240 150 LINE",
"180 90 LINE"
);
}
);
width = 480;
}
);
note = square;
unicode = E755;
category = Symbol;
},
{
glyphname = "radio-off";
production = "radio-off";
lastChange = "2022-10-13 11:33:54 +0000";
layers = (
{
layerId = "6EE81571-8FAC-412F-997F-533F3C178221";
paths = (
{
closed = 1;
nodes = (
"356 -10 OFFCURVE",
"440 74 OFFCURVE",
"440 180 CURVE SMOOTH",
"440 286 OFFCURVE",
"356 370 OFFCURVE",
"250 370 CURVE SMOOTH",
"144 370 OFFCURVE",
"60 286 OFFCURVE",
"60 180 CURVE SMOOTH",
"60 74 OFFCURVE",
"144 -10 OFFCURVE",
"250 -10 CURVE SMOOTH"
);
},
{
closed = 1;
nodes = (
"166 30 OFFCURVE",
"100 96 OFFCURVE",
"100 180 CURVE SMOOTH",
"100 264 OFFCURVE",
"166 330 OFFCURVE",
"250 330 CURVE SMOOTH",
"334 330 OFFCURVE",
"400 264 OFFCURVE",
"400 180 CURVE SMOOTH",
"400 96 OFFCURVE",
"334 30 OFFCURVE",
"250 30 CURVE SMOOTH"
);
}
);
width = 500;
}
);
note = ring;
unicode = E756;
category = Symbol;
},
{
glyphname = "radio-full";
production = "radio-full";
lastChange = "2022-10-13 01:34:50 +0000";
layers = (
{
layerId = "6EE81571-8FAC-412F-997F-533F3C178221";
paths = (
{
closed = 1;
nodes = (
"356 -10 OFFCURVE",
"440 74 OFFCURVE",
"440 180 CURVE SMOOTH",
"440 286 OFFCURVE",
"356 370 OFFCURVE",
"250 370 CURVE SMOOTH",
"144 370 OFFCURVE",
"60 286 OFFCURVE",
"60 180 CURVE SMOOTH",
"60 74 OFFCURVE",
"144 -10 OFFCURVE",
"250 -10 CURVE SMOOTH"
);
}
);
width = 500;
}
);
note = "outer-circle";
unicode = E758;
category = Symbol;
},
{
glyphname = info;
production = info;
lastChange = "2022-10-13 10:18:31 +0000";
layers = (
{
layerId = "6EE81571-8FAC-412F-997F-533F3C178221";
paths = (
{
closed = 1;
nodes = (
"356 -10 OFFCURVE",
"440 74 OFFCURVE",
"440 180 CURVE SMOOTH",
"440 286 OFFCURVE",
"356 370 OFFCURVE",
"250 370 CURVE SMOOTH",
"144 370 OFFCURVE",
"60 286 OFFCURVE",
"60 180 CURVE SMOOTH",
"60 74 OFFCURVE",
"144 -10 OFFCURVE",
"250 -10 CURVE SMOOTH"
);
},
{
closed = 1;
nodes = (
"220 190 LINE",
"280 190 LINE",
"280 70 LINE",
"220 70 LINE"
);
},
{
closed = 1;
nodes = (
"220 290 LINE",
"280 290 LINE",
"280 230 LINE",
"220 230 LINE"
);
}
);
width = 500;
}
);
note = info;
unicode = E759;
category = Symbol;
},
{
glyphname = pass;
production = pass;
lastChange = "2022-10-13 01:34:50 +0000";
layers = (
{
layerId = "6EE81571-8FAC-412F-997F-533F3C178221";
paths = (
{
closed = 1;
nodes = (
"356 -10 OFFCURVE",
"440 74 OFFCURVE",
"440 180 CURVE SMOOTH",
"440 286 OFFCURVE",
"356 370 OFFCURVE",
"250 370 CURVE SMOOTH",
"144 370 OFFCURVE",
"60 286 OFFCURVE",
"60 180 CURVE SMOOTH",
"60 74 OFFCURVE",
"144 -10 OFFCURVE",
"250 -10 CURVE SMOOTH"
);
},
{
closed = 1;
nodes = (
"140 180 LINE",
"170 210 LINE",
"227 153 LINE",
"330 270 LINE",
"360 240 LINE",
"228 90 LINE"
);
}
);
width = 500;
}
);
note = tick;
unicode = E75B;
category = Symbol;
},
{
glyphname = fail;
production = fail;
lastChange = "2022-10-13 10:18:30 +0000";
layers = (
{
layerId = "6EE81571-8FAC-412F-997F-533F3C178221";
paths = (
{
closed = 1;
nodes = (
"356 -10 OFFCURVE",
"440 74 OFFCURVE",
"440 180 CURVE SMOOTH",
"440 286 OFFCURVE",
"356 370 OFFCURVE",
"250 370 CURVE SMOOTH",
"144 370 OFFCURVE",
"60 286 OFFCURVE",
"60 180 CURVE SMOOTH",
"60 74 OFFCURVE",
"144 -10 OFFCURVE",
"250 -10 CURVE SMOOTH"
);
},
{
closed = 1;
nodes = (
"160 120 LINE",
"220 180 LINE",
"160 240 LINE",
"190 270 LINE",
"250 210 LINE",
"310 270 LINE",
"340 240 LINE",
"280 180 LINE",
"340 120 LINE",
"310 90 LINE",
"250 150 LINE",
"190 90 LINE"
);
}
);
width = 500;
}
);
note = cross;
unicode = E75C;
category = Symbol;
},
{
glyphname = unknown;
production = unknown;
lastChange = "2022-10-13 10:18:31 +0000";
layers = (
{
components = (
{
name = "radio-full";
}
);
layerId = "6EE81571-8FAC-412F-997F-533F3C178221";
paths = (
{
closed = 1;
nodes = (
"230 208 OFFCURVE",
"278 206 OFFCURVE",
"278 234 CURVE",
"278 246 OFFCURVE",
"268 254 OFFCURVE",
"254 254 CURVE",
"232 254 OFFCURVE",
"220 240 OFFCURVE",
"220 218 CURVE",
"180 218 LINE",
"180 262 OFFCURVE",
"206 290 OFFCURVE",
"250 290 CURVE",
"294 290 OFFCURVE",
"318 268 OFFCURVE",
"318 234 CURVE",
"318 186 OFFCURVE",
"270 180 OFFCURVE",
"270 150 CURVE",
"230 150 LINE"
);
},
{
closed = 1;
nodes = (
"230 120 LINE",
"270 120 LINE",
"270 80 LINE",
"230 80 LINE"
);
}
);
width = 500;
}
);
note = document;
unicode = E780;
category = Symbol;
},
{
glyphname = text;
production = text;
lastChange = "2022-10-13 11:13:06 +0000";
layers = (
{
layerId = "6EE81571-8FAC-412F-997F-533F3C178221";
paths = (
{
closed = 1;
nodes = (
"110 40 LINE",
"213 274 LINE",
"207 274 LINE",
"310 40 LINE",
"355 40 LINE",
"222 330 LINE",
"198 330 LINE",
"65 40 LINE"
);
},
{
closed = 1;
nodes = (
"315 120 LINE",
"295 160 LINE",
"135 160 LINE",
"115 120 LINE"
);
}
);
width = 420;
}
);
note = text;
unicode = E75D;
category = Symbol;
},
{
glyphname = bold;
production = bold;
lastChange = "2022-10-13 09:48:44 +0000";
layers = (
{
layerId = "6EE81571-8FAC-412F-997F-533F3C178221";
paths = (
{
closed = 1;
nodes = (
"205 40 LINE SMOOTH",
"255 40 OFFCURVE",
"290 73 OFFCURVE",
"290 120 CURVE SMOOTH",
"290 154 OFFCURVE",
"269 180 OFFCURVE",
"240 184 CURVE",
"240 188 LINE",
"260 194 OFFCURVE",
"275 221 OFFCURVE",
"275 246 CURVE SMOOTH",
"275 293 OFFCURVE",
"235 320 OFFCURVE",
"178 320 CURVE SMOOTH",
"80 320 LINE",
"80 40 LINE"
);
},
{
closed = 1;
nodes = (
"120 160 LINE",
"209 160 LINE SMOOTH",
"233 160 OFFCURVE",
"250 143 OFFCURVE",
"250 120 CURVE SMOOTH",
"250 97 OFFCURVE",
"233 80 OFFCURVE",
"209 80 CURVE SMOOTH",
"120 80 LINE"
);
},
{
closed = 1;
nodes = (
"120 280 LINE",
"192 280 LINE SMOOTH",
"217 280 OFFCURVE",
"235 263 OFFCURVE",
"235 240 CURVE SMOOTH",
"235 217 OFFCURVE",
"217 200 OFFCURVE",
"192 200 CURVE SMOOTH",
"120 200 LINE"
);
}
);
width = 360;
}
);
note = text;
unicode = E75E;
category = Symbol;
},
{
glyphname = italic;
production = italic;
lastChange = "2022-10-13 01:34:50 +0000";
layers = (
{
layerId = "6EE81571-8FAC-412F-997F-533F3C178221";
paths = (
{
closed = 1;
nodes = (
"320 280 LINE",
"320 320 LINE",
"100 320 LINE",
"100 280 LINE"
);
},
{
closed = 1;
nodes = (
"60 80 LINE",
"60 40 LINE",
"260 40 LINE",
"260 80 LINE"
);
},
{
closed = 1;
nodes = (
"179 75 LINE",
"235 285 LINE",
"191 285 LINE",
"135 75 LINE"
);
}
);
width = 380;
}
);
note = text;
unicode = E75F;
category = Symbol;
},
{
glyphname = underline;
production = underline;
lastChange = "2022-10-13 03:29:51 +0000";
layers = (
{
components = (
{
name = min;
transform = "{1, 0, 0, 1, 0, -20}";
}
);
layerId = "6EE81571-8FAC-412F-997F-533F3C178221";
paths = (
{
closed = 1;
nodes = (
"260 100 OFFCURVE",
"300 150 OFFCURVE",
"300 220 CURVE SMOOTH",
"300 340 LINE",
"260 340 LINE",
"260 220 LINE SMOOTH",
"260 173 OFFCURVE",
"237 140 OFFCURVE",
"190 140 CURVE SMOOTH",
"143 140 OFFCURVE",
"120 173 OFFCURVE",
"120 220 CURVE SMOOTH",
"120 340 LINE",
"80 340 LINE",
"80 220 LINE SMOOTH",
"80 150 OFFCURVE",
"120 100 OFFCURVE",
"190 100 CURVE SMOOTH"
);
}
);
width = 380;
}
);
note = "text-center";
unicode = E760;
category = Symbol;
},
{
glyphname = strikeout;
production = strikeout;
lastChange = "2022-10-13 01:34:51 +0000";
layers = (
{
background = {
paths = (
{
closed = 1;
nodes = (
"280 20 OFFCURVE",
"330 50 OFFCURVE",
"330 110 CURVE SMOOTH",
"330 170 OFFCURVE",
"280 190 OFFCURVE",
"240 200 CURVE SMOOTH",
"210 220 OFFCURVE",
"180 230 OFFCURVE",
"180 260 CURVE SMOOTH",
"180 280 OFFCURVE",
"200 290 OFFCURVE",
"220 290 CURVE SMOOTH",
"240 290 OFFCURVE",
"250 280 OFFCURVE",
"260 260 CURVE",
"320 270 LINE",
"320 320 OFFCURVE",
"260 350 OFFCURVE",
"220 350 CURVE SMOOTH",
"170 350 OFFCURVE",
"120 310 OFFCURVE",
"120 260 CURVE SMOOTH",
"120 210 OFFCURVE",
"160 180 OFFCURVE",
"190 170 CURVE SMOOTH",
"220 150 OFFCURVE",
"270 140 OFFCURVE",
"270 110 CURVE SMOOTH",
"270 80 OFFCURVE",
"250 80 OFFCURVE",
"230 80 CURVE SMOOTH",
"200 80 OFFCURVE",
"180 90 OFFCURVE",
"170 120 CURVE",
"110 100 LINE",
"130 40 OFFCURVE",
"180 20 OFFCURVE",
"230 20 CURVE SMOOTH"
);
}
);
};
layerId = "6EE81571-8FAC-412F-997F-533F3C178221";
paths = (
{
closed = 1;
nodes = (
"280 30 OFFCURVE",
"320 70 OFFCURVE",
"320 116 CURVE SMOOTH",
"320 147 OFFCURVE",
"303 166 OFFCURVE",
"280 180 CURVE",
"232 193 LINE",
"210 211 OFFCURVE",
"167 222 OFFCURVE",
"167 253 CURVE SMOOTH",
"167 275 OFFCURVE",
"187 290 OFFCURVE",
"216 290 CURVE SMOOTH",
"249 290 OFFCURVE",
"272 272 OFFCURVE",
"273 245 CURVE",
"313 245 LINE",
"312 296 OFFCURVE",
"273 330 OFFCURVE",
"217 330 CURVE SMOOTH",
"164 330 OFFCURVE",
"127 299 OFFCURVE",
"127 253 CURVE SMOOTH",
"127 214 OFFCURVE",
"155 195 OFFCURVE",
"178 180 CURVE",
"220 168 LINE",
"252 156 OFFCURVE",
"280 143 OFFCURVE",
"280 117 CURVE SMOOTH",
"280 94 OFFCURVE",
"257 70 OFFCURVE",
"221 70 CURVE SMOOTH",
"187 70 OFFCURVE",
"163 91 OFFCURVE",
"163 120 CURVE",
"120 120 LINE",
"120 68 OFFCURVE",
"162 30 OFFCURVE",
"220 30 CURVE SMOOTH"
);
},
{
closed = 1;
nodes = (
"380 160 LINE",
"380 200 LINE",
"60 200 LINE",
"60 160 LINE"
);
}
);
width = 440;
}
);
note = "text-center";
unicode = E761;
category = Symbol;
},
{
glyphname = "text-size";
production = "text-size";
lastChange = "2022-10-13 11:12:53 +0000";
layers = (
{
guideLines = (
{
angle = 90;
position = "{316, 26}";
}
);
layerId = "6EE81571-8FAC-412F-997F-533F3C178221";
paths = (
{
closed = 1;
nodes = (
"280 40 LINE",
"280 280 LINE",
"380 280 LINE",
"380 320 LINE",
"140 320 LINE",
"140 280 LINE",
"240 280 LINE",
"240 40 LINE"
);
},
{
closed = 1;
nodes = (
"140 40 LINE",
"140 180 LINE",
"200 180 LINE",
"200 220 LINE",
"40 220 LINE",
"40 180 LINE",
"100 180 LINE",
"100 40 LINE"
);
}
);
width = 420;
}
);
note = text;
unicode = E762;
category = Symbol;
},
{
glyphname = "text-unstyle";
production = "text-unstyle";
lastChange = "2022-10-13 01:34:51 +0000";
layers = (
{
background = {
paths = (
{
closed = 1;
nodes = (
"240 40 LINE",
"240 280 LINE",
"340 280 LINE",
"340 320 LINE",
"100 320 LINE",
"100 280 LINE",
"200 280 LINE",
"200 40 LINE"
);
}
);
};
components = (
{
name = _part.crossbar;
transform = "{1, 0, 0, 1, -40, 0}";
}
);
layerId = "6EE81571-8FAC-412F-997F-533F3C178221";
paths = (
{
closed = 1;
nodes = (
"240 40 LINE",
"240 130 LINE",
"200 170 LINE",
"200 40 LINE"
);
},
{
closed = 1;
nodes = (
"240 280 LINE",
"340 280 LINE",
"340 320 LINE",
"150 320 LINE",
"240 230 LINE"
);
}
);
width = 440;
}
);
note = text;
unicode = E763;
category = Symbol;
},
{
glyphname = "align-left";
production = "align-left";
lastChange = "2022-10-13 01:34:51 +0000";
layers = (
{
background = {
paths = (
{
closed = 1;
nodes = (
"420 300 LINE",
"420 345 LINE",
"60 345 LINE",
"60 300 LINE"
);
},
{
closed = 1;
nodes = (
"300 30 LINE",
"300 75 LINE",
"60 75 LINE",
"60 30 LINE"
);
},
{
closed = 1;
nodes = (
"420 120 LINE",
"420 165 LINE",
"60 165 LINE",
"60 120 LINE"
);
},
{
closed = 1;
nodes = (
"300 210 LINE",
"300 255 LINE",
"60 255 LINE",
"60 210 LINE"
);
}
);
};
layerId = "6EE81571-8FAC-412F-997F-533F3C178221";
paths = (
{
closed = 1;
nodes = (
"400 280 LINE",
"400 320 LINE",
"60 320 LINE",
"60 280 LINE"
);
},
{
closed = 1;
nodes = (
"280 40 LINE",
"280 80 LINE",
"60 80 LINE",
"60 40 LINE"
);
},
{
closed = 1;
nodes = (
"400 120 LINE",
"400 160 LINE",
"60 160 LINE",
"60 120 LINE"
);
},
{
closed = 1;
nodes = (
"280 200 LINE",
"280 240 LINE",
"60 240 LINE",
"60 200 LINE"
);
}
);
width = 460;
}
);
note = "text-left";
unicode = E764;
category = Symbol;
},
{
glyphname = "align-center";
production = "align-center";
lastChange = "2022-10-13 01:34:51 +0000";
layers = (
{
layerId = "6EE81571-8FAC-412F-997F-533F3C178221";
paths = (
{
closed = 1;
nodes = (
"400 280 LINE",
"400 320 LINE",
"60 320 LINE",
"60 280 LINE"
);
},
{
closed = 1;
nodes = (
"340 40 LINE",
"340 80 LINE",
"120 80 LINE",
"120 40 LINE"
);
},
{
closed = 1;
nodes = (
"400 120 LINE",
"400 160 LINE",
"60 160 LINE",
"60 120 LINE"
);
},
{
closed = 1;
nodes = (
"340 200 LINE",
"340 240 LINE",
"120 240 LINE",
"120 200 LINE"
);
}
);
width = 460;
}
);
note = "text-center";
unicode = E765;
category = Symbol;
},
{
glyphname = indent;
production = indent;
lastChange = "2022-10-13 01:34:51 +0000";
layers = (
{
layerId = "6EE81571-8FAC-412F-997F-533F3C178221";
paths = (
{
closed = 1;
nodes = (
"420 280 LINE",
"420 320 LINE",
"60 320 LINE",
"60 280 LINE"
);
},
{
closed = 1;
nodes = (
"140 180 LINE",
"60 240 LINE",
"60 120 LINE"
);
},
{
closed = 1;
nodes = (
"420 40 LINE",
"420 80 LINE",
"60 80 LINE",
"60 40 LINE"
);
},
{
closed = 1;
nodes = (
"420 120 LINE",
"420 160 LINE",
"180 160 LINE",
"180 120 LINE"
);
},
{
closed = 1;
nodes = (
"420 200 LINE",
"420 240 LINE",
"180 240 LINE",
"180 200 LINE"
);
}
);
width = 480;
}
);
note = "text-left";
unicode = E767;
category = Symbol;
},
{
glyphname = outdent;
production = outdent;
lastChange = "2022-10-13 01:34:51 +0000";
layers = (
{
layerId = "6EE81571-8FAC-412F-997F-533F3C178221";
paths = (
{
closed = 1;
nodes = (
"420 280 LINE",
"420 320 LINE",
"60 320 LINE",
"60 280 LINE"
);
},
{
closed = 1;
nodes = (
"140 240 LINE",
"60 180 LINE",
"140 120 LINE"
);
},
{
closed = 1;
nodes = (
"420 40 LINE",
"420 80 LINE",
"60 80 LINE",
"60 40 LINE"
);
},
{
closed = 1;
nodes = (
"420 120 LINE",
"420 160 LINE",
"180 160 LINE",
"180 120 LINE"
);
},
{
closed = 1;
nodes = (
"420 200 LINE",
"420 240 LINE",
"180 240 LINE",
"180 200 LINE"
);
}
);
width = 480;
}
);
note = "text-left";
unicode = E768;
category = Symbol;
},
{
glyphname = chapters;
production = chapters;
lastChange = "2022-10-13 09:54:43 +0000";
layers = (
{
layerId = "6EE81571-8FAC-412F-997F-533F3C178221";
paths = (
{
closed = 1;
nodes = (
"420 280 LINE",
"420 320 LINE",
"140 320 LINE",
"140 280 LINE"
);
},
{
closed = 1;
nodes = (
"100 40 LINE",
"100 80 LINE",
"60 80 LINE",
"60 40 LINE"
);
},
{
closed = 1;
nodes = (
"100 200 LINE",
"100 240 LINE",
"60 240 LINE",
"60 200 LINE"
);
},
{
closed = 1;
nodes = (
"420 40 LINE",
"420 80 LINE",
"140 80 LINE",
"140 40 LINE"
);
},
{
closed = 1;
nodes = (
"100 280 LINE",
"100 320 LINE",
"60 320 LINE",
"60 280 LINE"
);
},
{
closed = 1;
nodes = (
"420 200 LINE",
"420 240 LINE",
"140 240 LINE",
"140 200 LINE"
);
},
{
closed = 1;
nodes = (
"100 120 LINE",
"100 160 LINE",
"60 160 LINE",
"60 120 LINE"
);
},
{
closed = 1;
nodes = (
"420 120 LINE",
"420 160 LINE",
"140 160 LINE",
"140 120 LINE"
);
}
);
width = 480;
}
);
note = chapters;
unicode = E74B;
category = Symbol;
},
{
glyphname = "justify-left";
lastChange = "2022-10-13 07:56:49 +0000";
layers = (
{
background = {
paths = (
{
closed = 1;
nodes = (
"420 300 LINE",
"420 345 LINE",
"60 345 LINE",
"60 300 LINE"
);
},
{
closed = 1;
nodes = (
"300 30 LINE",
"300 75 LINE",
"60 75 LINE",
"60 30 LINE"
);
},
{
closed = 1;
nodes = (
"420 120 LINE",
"420 165 LINE",
"60 165 LINE",
"60 120 LINE"
);
},
{
closed = 1;
nodes = (
"300 210 LINE",
"300 255 LINE",
"60 255 LINE",
"60 210 LINE"
);
}
);
};
layerId = "6EE81571-8FAC-412F-997F-533F3C178221";
paths = (
{
closed = 1;
nodes = (
"400 280 LINE",
"400 320 LINE",
"60 320 LINE",
"60 280 LINE"
);
},
{
closed = 1;
nodes = (
"280 40 LINE",
"280 80 LINE",
"60 80 LINE",
"60 40 LINE"
);
},
{
closed = 1;
nodes = (
"400 120 LINE",
"400 160 LINE",
"60 160 LINE",
"60 120 LINE"
);
},
{
closed = 1;
nodes = (
"400 200 LINE",
"400 240 LINE",
"60 240 LINE",
"60 200 LINE"
);
}
);
width = 460;
}
);
note = "text-left";
unicode = E782;
category = Symbol;
},
{
glyphname = "justify-center";
production = "justify-center";
lastChange = "2022-10-13 07:56:49 +0000";
layers = (
{
layerId = "6EE81571-8FAC-412F-997F-533F3C178221";
paths = (
{
closed = 1;
nodes = (
"400 280 LINE",
"400 320 LINE",
"60 320 LINE",
"60 280 LINE"
);
},
{
closed = 1;
nodes = (
"340 40 LINE",
"340 80 LINE",
"120 80 LINE",
"120 40 LINE"
);
},
{
closed = 1;
nodes = (
"400 120 LINE",
"400 160 LINE",
"60 160 LINE",
"60 120 LINE"
);
},
{
closed = 1;
nodes = (
"400 200 LINE",
"400 240 LINE",
"60 240 LINE",
"60 200 LINE"
);
}
);
width = 460;
}
);
note = "text-center";
unicode = E781;
category = Symbol;
},
{
glyphname = "sort-asc";
production = "sort-asc";
lastChange = "2022-10-13 07:56:49 +0000";
layers = (
{
layerId = "6EE81571-8FAC-412F-997F-533F3C178221";
paths = (
{
closed = 1;
nodes = (
"60 40 LINE",
"400 40 LINE",
"400 80 LINE",
"60 80 LINE"
);
},
{
closed = 1;
nodes = (
"60 280 LINE",
"160 280 LINE",
"160 320 LINE",
"60 320 LINE"
);
},
{
closed = 1;
nodes = (
"60 200 LINE",
"240 200 LINE",
"240 240 LINE",
"60 240 LINE"
);
},
{
closed = 1;
nodes = (
"60 120 LINE",
"320 120 LINE",
"320 160 LINE",
"60 160 LINE"
);
}
);
width = 460;
}
);
note = "text-left";
unicode = E784;
category = Symbol;
},
{
glyphname = translate;
production = translate;
lastChange = "2022-10-13 07:56:49 +0000";
layers = (
{
layerId = "6EE81571-8FAC-412F-997F-533F3C178221";
paths = (
{
closed = 1;
nodes = (
"160 240 LINE",
"120 240 LINE",
"40 40 LINE",
"83 40 LINE",
"150 215 LINE",
"130 215 LINE",
"196 40 LINE",
"240 40 LINE"
);
},
{
closed = 1;
nodes = (
"90 80 LINE",
"190 80 LINE",
"190 120 LINE",
"90 120 LINE"
);
},
{
closed = 1;
nodes = (
"370 187 OFFCURVE",
"370 260 CURVE",
"430 260 LINE",
"430 300 LINE",
"350 300 LINE",
"350 340 LINE",
"310 340 LINE",
"310 300 LINE",
"210 300 LINE",
"210 260 LINE",
"330 260 LINE",
"330 205 OFFCURVE",
"293 152 OFFCURVE",
"246 140 CURVE SMOOTH",
"238 138 LINE",
"253 101 LINE",
"261 103 LINE SMOOTH",
"321 118 OFFCURVE"
);
},
{
closed = 1;
nodes = (
"329 100 OFFCURVE",
"430 100 CURVE",
"430 140 LINE",
"352 140 OFFCURVE",
"290 175 OFFCURVE",
"290 220 CURVE",
"250 220 LINE",
"250 153 OFFCURVE"
);
}
);
width = 470;
}
);
note = text;
unicode = E786;
category = Symbol;
},
{
glyphname = user;
production = user;
lastChange = "2022-10-13 01:34:50 +0000";
layers = (
{
layerId = "6EE81571-8FAC-412F-997F-533F3C178221";
paths = (
{
closed = 1;
nodes = (
"290 150 OFFCURVE",
"330 190 OFFCURVE",
"330 240 CURVE SMOOTH",
"330 290 OFFCURVE",
"290 330 OFFCURVE",
"240 330 CURVE SMOOTH",
"190 330 OFFCURVE",
"150 290 OFFCURVE",
"150 240 CURVE SMOOTH",
"150 190 OFFCURVE",
"190 150 OFFCURVE",
"240 150 CURVE SMOOTH"
);
},
{
closed = 1;
nodes = (
"360 30 LINE",
"360 60 LINE SMOOTH",
"360 94 OFFCURVE",
"334 120 OFFCURVE",
"300 120 CURVE SMOOTH",
"180 120 LINE SMOOTH",
"146 120 OFFCURVE",
"120 94 OFFCURVE",
"120 60 CURVE SMOOTH",
"120 30 LINE"
);
}
);
width = 480;
}
);
unicode = E738;
category = Symbol;
},
{
glyphname = group;
production = group;
lastChange = "2022-10-13 01:34:50 +0000";
layers = (
{
layerId = "6EE81571-8FAC-412F-997F-533F3C178221";
paths = (
{
closed = 1;
nodes = (
"220 80 LINE",
"220 110 LINE SMOOTH",
"220 144 OFFCURVE",
"194 170 OFFCURVE",
"160 170 CURVE SMOOTH",
"120 170 LINE SMOOTH",
"86 170 OFFCURVE",
"60 144 OFFCURVE",
"60 110 CURVE SMOOTH",
"60 80 LINE"
);
},
{
closed = 1;
nodes = (
"179 200 OFFCURVE",
"210 231 OFFCURVE",
"210 270 CURVE SMOOTH",
"210 309 OFFCURVE",
"179 340 OFFCURVE",
"140 340 CURVE SMOOTH",
"101 340 OFFCURVE",
"70 309 OFFCURVE",
"70 270 CURVE SMOOTH",
"70 231 OFFCURVE",
"101 200 OFFCURVE",
"140 200 CURVE SMOOTH"
);
},
{
closed = 1;
nodes = (
"420 20 LINE",
"420 50 LINE SMOOTH",
"420 84 OFFCURVE",
"394 110 OFFCURVE",
"360 110 CURVE SMOOTH",
"320 110 LINE SMOOTH",
"286 110 OFFCURVE",
"260 84 OFFCURVE",
"260 50 CURVE SMOOTH",
"260 20 LINE"
);
},
{
closed = 1;
nodes = (
"379 140 OFFCURVE",
"410 171 OFFCURVE",
"410 210 CURVE SMOOTH",
"410 249 OFFCURVE",
"379 280 OFFCURVE",
"340 280 CURVE SMOOTH",
"301 280 OFFCURVE",
"270 249 OFFCURVE",
"270 210 CURVE SMOOTH",
"270 171 OFFCURVE",
"301 140 OFFCURVE",
"340 140 CURVE SMOOTH"
);
}
);
width = 480;
}
);
unicode = E739;
category = Symbol;
},
{
glyphname = web;
production = web;
lastChange = "2022-10-13 11:41:54 +0000";
layers = (
{
layerId = "6EE81571-8FAC-412F-997F-533F3C178221";
paths = (
{
closed = 1;
nodes = (
"320 -20 OFFCURVE",
"360 68 OFFCURVE",
"360 180 CURVE SMOOTH",
"360 292 OFFCURVE",
"320 380 OFFCURVE",
"270 380 CURVE SMOOTH",
"220 380 OFFCURVE",
"180 292 OFFCURVE",
"180 180 CURVE SMOOTH",
"180 68 OFFCURVE",
"220 -20 OFFCURVE",
"270 -20 CURVE SMOOTH"
);
},
{
closed = 1;
nodes = (
"242 10 OFFCURVE",
"220 85 OFFCURVE",
"220 180 CURVE SMOOTH",
"220 275 OFFCURVE",
"242 350 OFFCURVE",
"270 350 CURVE SMOOTH",
"298 350 OFFCURVE",
"320 275 OFFCURVE",
"320 180 CURVE SMOOTH",
"320 85 OFFCURVE",
"298 10 OFFCURVE",
"270 10 CURVE SMOOTH"
);
},
{
closed = 1;
nodes = (
"70 130 OFFCURVE",
"158 90 OFFCURVE",
"270 90 CURVE SMOOTH",
"382 90 OFFCURVE",
"470 130 OFFCURVE",
"470 180 CURVE SMOOTH",
"470 230 OFFCURVE",
"382 270 OFFCURVE",
"270 270 CURVE SMOOTH",
"158 270 OFFCURVE",
"70 230 OFFCURVE",
"70 180 CURVE SMOOTH"
);
},
{
closed = 1;
nodes = (
"100 208 OFFCURVE",
"175 230 OFFCURVE",
"270 230 CURVE SMOOTH",
"365 230 OFFCURVE",
"440 208 OFFCURVE",
"440 180 CURVE SMOOTH",
"440 152 OFFCURVE",
"365 130 OFFCURVE",
"270 130 CURVE SMOOTH",
"175 130 OFFCURVE",
"100 152 OFFCURVE",
"100 180 CURVE SMOOTH"
);
},
{
closed = 1;
nodes = (
"388 -30 OFFCURVE",
"480 62 OFFCURVE",
"480 180 CURVE SMOOTH",
"480 298 OFFCURVE",
"388 390 OFFCURVE",
"270 390 CURVE SMOOTH",
"152 390 OFFCURVE",
"60 298 OFFCURVE",
"60 180 CURVE SMOOTH",
"60 62 OFFCURVE",
"152 -30 OFFCURVE",
"270 -30 CURVE SMOOTH"
);
},
{
closed = 1;
nodes = (
"175 10 OFFCURVE",
"100 85 OFFCURVE",
"100 180 CURVE SMOOTH",
"100 275 OFFCURVE",
"175 350 OFFCURVE",
"270 350 CURVE SMOOTH",
"365 350 OFFCURVE",
"440 275 OFFCURVE",
"440 180 CURVE SMOOTH",
"440 85 OFFCURVE",
"365 10 OFFCURVE",
"270 10 CURVE SMOOTH"
);
}
);
width = 540;
}
);
note = ring;
unicode = E76A;
category = Symbol;
},
{
glyphname = cloud;
production = cloud;
lastChange = "2022-10-13 01:34:51 +0000";
layers = (
{
layerId = "6EE81571-8FAC-412F-997F-533F3C178221";
paths = (
{
closed = 1;
nodes = (
"370 50 LINE SMOOTH",
"410 50 OFFCURVE",
"441 82 OFFCURVE",
"441 122 CURVE SMOOTH",
"441 156 OFFCURVE",
"418 183 OFFCURVE",
"390 190 CURVE",
"396 199 OFFCURVE",
"400 219 OFFCURVE",
"400 235 CURVE SMOOTH",
"400 296 OFFCURVE",
"346 344 OFFCURVE",
"281 344 CURVE SMOOTH",
"218 344 OFFCURVE",
"170 298 OFFCURVE",
"170 240 CURVE",
"170 240 OFFCURVE",
"160 240 OFFCURVE",
"160 240 CURVE SMOOTH",
"106 240 OFFCURVE",
"63 198 OFFCURVE",
"63 145 CURVE SMOOTH",
"63 92 OFFCURVE",
"106 50 OFFCURVE",
"160 50 CURVE SMOOTH"
);
}
);
width = 502;
}
);
note = cloud;
unicode = E769;
category = Symbol;
},
{
glyphname = wifi;
production = wifi;
lastChange = "2022-10-13 01:34:51 +0000";
layers = (
{
background = {
paths = (
{
closed = 1;
nodes = (
"305 95 LINE",
"290 111 OFFCURVE",
"270 118 OFFCURVE",
"250 118 CURVE SMOOTH",
"230 118 OFFCURVE",
"211 111 OFFCURVE",
"195 95 CURVE",
"250 40 LINE"
);
},
{
closed = 1;
nodes = (
"181 163 OFFCURVE",
"216 177 OFFCURVE",
"250 177 CURVE SMOOTH",
"285 177 OFFCURVE",
"319 163 OFFCURVE",
"346 136 CURVE",
"387 177 LINE",
"349 216 OFFCURVE",
"299 235 OFFCURVE",
"250 235 CURVE SMOOTH",
"201 235 OFFCURVE",
"152 216 OFFCURVE",
"113 177 CURVE",
"154 136 LINE"
);
},
{
closed = 1;
nodes = (
"122 268 OFFCURVE",
"186 293 OFFCURVE",
"250 293 CURVE SMOOTH",
"314 293 OFFCURVE",
"378 268 OFFCURVE",
"428 218 CURVE",
"469 259 LINE",
"408 321 OFFCURVE",
"329 351 OFFCURVE",
"250 351 CURVE SMOOTH",
"171 351 OFFCURVE",
"93 321 OFFCURVE",
"31 259 CURVE",
"72 218 LINE"
);
}
);
};
layerId = "6EE81571-8FAC-412F-997F-533F3C178221";
paths = (
{
closed = 1;
nodes = (
"113 283 OFFCURVE",
"182 308 OFFCURVE",
"250 308 CURVE SMOOTH",
"319 308 OFFCURVE",
"387 283 OFFCURVE",
"440 230 CURVE",
"470 260 LINE",
"409 322 OFFCURVE",
"329 350 OFFCURVE",
"250 350 CURVE SMOOTH",
"171 350 OFFCURVE",
"92 322 OFFCURVE",
"30 260 CURVE",
"60 230 LINE"
);
},
{
closed = 1;
nodes = (
"290 80 LINE",
"279 91 OFFCURVE",
"265 98 OFFCURVE",
"250 98 CURVE SMOOTH",
"236 98 OFFCURVE",
"221 91 OFFCURVE",
"210 80 CURVE",
"250 40 LINE"
);
},
{
closed = 1;
nodes = (
"200 130 OFFCURVE",
"225 140 OFFCURVE",
"250 140 CURVE SMOOTH",
"275 140 OFFCURVE",
"301 130 OFFCURVE",
"320 110 CURVE",
"350 140 LINE",
"322 168 OFFCURVE",
"286 182 OFFCURVE",
"250 182 CURVE",
"214 182 OFFCURVE",
"178 168 OFFCURVE",
"150 140 CURVE",
"180 110 LINE"
);
},
{
closed = 1;
nodes = (
"157 207 OFFCURVE",
"203 224 OFFCURVE",
"250 224 CURVE SMOOTH",
"297 224 OFFCURVE",
"344 207 OFFCURVE",
"380 170 CURVE",
"410 200 LINE",
"365 245 OFFCURVE",
"308 266 OFFCURVE",
"250 266 CURVE SMOOTH",
"193 266 OFFCURVE",
"135 245 OFFCURVE",
"90 200 CURVE",
"120 170 LINE"
);
}
);
width = 500;
}
);
note = wifi;
unicode = E76B;
category = Symbol;
},
{
glyphname = rss;
production = rss;
lastChange = "2022-10-13 02:06:29 +0000";
layers = (
{
background = {
paths = (
{
closed = 1;
nodes = (
"420 0 LINE",
"420 202 OFFCURVE",
"262 360 OFFCURVE",
"60 360 CURVE",
"60 290 LINE",
"222 291 OFFCURVE",
"350 163 OFFCURVE",
"350 0 CURVE"
);
},
{
closed = 1;
nodes = (
"122 0 OFFCURVE",
"140 18 OFFCURVE",
"140 40 CURVE SMOOTH",
"140 62 OFFCURVE",
"122 80 OFFCURVE",
"100 80 CURVE SMOOTH",
"78 80 OFFCURVE",
"60 62 OFFCURVE",
"60 40 CURVE SMOOTH",
"60 18 OFFCURVE",
"78 0 OFFCURVE",
"100 0 CURVE SMOOTH"
);
},
{
closed = 1;
nodes = (
"290 0 LINE",
"290 129 OFFCURVE",
"189 230 OFFCURVE",
"60 230 CURVE",
"60 160 LINE",
"150 160 OFFCURVE",
"220 90 OFFCURVE",
"220 0 CURVE"
);
}
);
};
layerId = "6EE81571-8FAC-412F-997F-533F3C178221";
paths = (
{
closed = 1;
nodes = (
"420 0 LINE",
"420 202 OFFCURVE",
"262 360 OFFCURVE",
"60 360 CURVE",
"60 300 LINE",
"228 301 OFFCURVE",
"360 169 OFFCURVE",
"360 0 CURVE"
);
},
{
closed = 1;
nodes = (
"130 0 OFFCURVE",
"150 20 OFFCURVE",
"150 45 CURVE SMOOTH",
"150 70 OFFCURVE",
"130 90 OFFCURVE",
"105 90 CURVE SMOOTH",
"80 90 OFFCURVE",
"60 70 OFFCURVE",
"60 45 CURVE SMOOTH",
"60 20 OFFCURVE",
"80 0 OFFCURVE",
"105 0 CURVE SMOOTH"
);
},
{
closed = 1;
nodes = (
"290 0 LINE",
"290 129 OFFCURVE",
"189 230 OFFCURVE",
"60 230 CURVE",
"60 170 LINE",
"155 170 OFFCURVE",
"230 95 OFFCURVE",
"230 0 CURVE"
);
}
);
width = 480;
}
);
note = cloud;
unicode = E74C;
category = Symbol;
},
{
glyphname = share;
production = share;
lastChange = "2022-10-13 03:33:36 +0000";
layers = (
{
layerId = "6EE81571-8FAC-412F-997F-533F3C178221";
paths = (
{
closed = 1;
nodes = (
"326 240 OFFCURVE",
"360 240 CURVE SMOOTH",
"394 240 OFFCURVE",
"420 266 OFFCURVE",
"420 300 CURVE SMOOTH",
"420 334 OFFCURVE",
"394 360 OFFCURVE",
"360 360 CURVE SMOOTH",
"326 360 OFFCURVE",
"300 334 OFFCURVE",
"300 300 CURVE SMOOTH",
"300 266 OFFCURVE"
);
},
{
closed = 1;
nodes = (
"300 94 OFFCURVE",
"300 60 CURVE SMOOTH",
"300 26 OFFCURVE",
"326 0 OFFCURVE",
"360 0 CURVE SMOOTH",
"394 0 OFFCURVE",
"420 26 OFFCURVE",
"420 60 CURVE SMOOTH",
"420 94 OFFCURVE",
"394 120 OFFCURVE",
"360 120 CURVE SMOOTH",
"326 120 OFFCURVE"
);
},
{
closed = 1;
nodes = (
"147 152 LINE",
"303 61 LINE",
"333 91 LINE",
"177 182 LINE"
);
},
{
closed = 1;
nodes = (
"154 240 OFFCURVE",
"120 240 CURVE SMOOTH",
"86 240 OFFCURVE",
"60 214 OFFCURVE",
"60 180 CURVE SMOOTH",
"60 146 OFFCURVE",
"86 120 OFFCURVE",
"120 120 CURVE SMOOTH",
"154 120 OFFCURVE",
"180 146 OFFCURVE",
"180 180 CURVE SMOOTH",
"180 214 OFFCURVE"
);
},
{
closed = 1;
nodes = (
"303 299 LINE",
"147 208 LINE",
"177 178 LINE",
"333 269 LINE"
);
}
);
width = 480;
}
);
note = share;
unicode = E74D;
category = Symbol;
},
{
glyphname = mail;
production = mail;
lastChange = "2022-10-13 01:52:01 +0000";
layers = (
{
background = {
paths = (
{
closed = 1;
nodes = (
"70 43 OFFCURVE",
"83 30 OFFCURVE",
"100 30 CURVE SMOOTH",
"400 30 LINE SMOOTH",
"417 30 OFFCURVE",
"430 43 OFFCURVE",
"430 60 CURVE SMOOTH",
"430 230 LINE",
"250 110 LINE",
"70 230 LINE",
"70 60 LINE SMOOTH"
);
},
{
closed = 1;
nodes = (
"250 170 LINE",
"430 290 LINE",
"430 300 LINE SMOOTH",
"430 317 OFFCURVE",
"417 330 OFFCURVE",
"400 330 CURVE SMOOTH",
"100 330 LINE SMOOTH",
"83 330 OFFCURVE",
"70 317 OFFCURVE",
"70 300 CURVE SMOOTH",
"70 290 LINE"
);
}
);
};
layerId = "6EE81571-8FAC-412F-997F-533F3C178221";
paths = (
{
closed = 1;
nodes = (
"420 40 LINE SMOOTH",
"431 40 OFFCURVE",
"440 49 OFFCURVE",
"440 60 CURVE SMOOTH",
"440 300 LINE SMOOTH",
"440 311 OFFCURVE",
"431 320 OFFCURVE",
"420 320 CURVE SMOOTH",
"80 320 LINE SMOOTH",
"69 320 OFFCURVE",
"60 311 OFFCURVE",
"60 300 CURVE SMOOTH",
"60 60 LINE SMOOTH",
"60 49 OFFCURVE",
"69 40 OFFCURVE",
"80 40 CURVE SMOOTH"
);
},
{
closed = 1;
nodes = (
"100 250 LINE",
"250 128 LINE",
"400 250 LINE",
"400 80 LINE",
"100 80 LINE"
);
},
{
closed = 1;
nodes = (
"124 280 LINE",
"376 280 LINE",
"250 178 LINE"
);
}
);
width = 500;
}
);
note = mail;
unicode = E74E;
category = Symbol;
},
{
glyphname = code;
production = code;
lastChange = "2022-10-13 01:34:50 +0000";
layers = (
{
layerId = "6EE81571-8FAC-412F-997F-533F3C178221";
paths = (
{
closed = 1;
nodes = (
"440 180 LINE",
"300 320 LINE",
"270 290 LINE",
"380 180 LINE",
"270 80 LINE",
"300 50 LINE"
);
},
{
closed = 1;
nodes = (
"210 80 LINE",
"110 180 LINE",
"210 290 LINE",
"180 320 LINE",
"50 180 LINE",
"180 50 LINE"
);
}
);
width = 480;
}
);
note = right;
unicode = E74F;
category = Symbol;
},
{
glyphname = drive;
production = drive;
lastChange = "2022-10-13 13:49:42 +0000";
layers = (
{
background = {
paths = (
{
closed = 1;
nodes = (
"360 40 LINE SMOOTH",
"394 40 OFFCURVE",
"420 66 OFFCURVE",
"420 100 CURVE SMOOTH",
"420 260 LINE SMOOTH",
"420 294 OFFCURVE",
"394 320 OFFCURVE",
"360 320 CURVE SMOOTH",
"120 320 LINE SMOOTH",
"86 320 OFFCURVE",
"60 294 OFFCURVE",
"60 260 CURVE SMOOTH",
"60 100 LINE SMOOTH",
"60 66 OFFCURVE",
"86 40 OFFCURVE",
"120 40 CURVE SMOOTH"
);
},
{
closed = 1;
nodes = (
"109 80 OFFCURVE",
"100 89 OFFCURVE",
"100 100 CURVE SMOOTH",
"100 180 LINE SMOOTH",
"100 191 OFFCURVE",
"109 200 OFFCURVE",
"120 200 CURVE SMOOTH",
"360 200 LINE SMOOTH",
"371 200 OFFCURVE",
"380 191 OFFCURVE",
"380 180 CURVE SMOOTH",
"380 100 LINE SMOOTH",
"380 89 OFFCURVE",
"371 80 OFFCURVE",
"360 80 CURVE SMOOTH",
"120 80 LINE SMOOTH"
);
},
{
closed = 1;
nodes = (
"340 120 LINE",
"340 160 LINE",
"240 160 LINE",
"240 120 LINE"
);
},
{
closed = 1;
nodes = (
"100 260 LINE SMOOTH",
"100 273 OFFCURVE",
"107 280 OFFCURVE",
"120 280 CURVE SMOOTH",
"360 280 LINE SMOOTH",
"373 280 OFFCURVE",
"380 273 OFFCURVE",
"380 260 CURVE SMOOTH",
"380 240 LINE",
"100 240 LINE"
);
}
);
};
layerId = "6EE81571-8FAC-412F-997F-533F3C178221";
paths = (
{
closed = 1;
nodes = (
"400 40 LINE SMOOTH",
"411 40 OFFCURVE",
"420 49 OFFCURVE",
"420 60 CURVE SMOOTH",
"420 300 LINE SMOOTH",
"420 311 OFFCURVE",
"411 320 OFFCURVE",
"400 320 CURVE SMOOTH",
"80 320 LINE SMOOTH",
"69 320 OFFCURVE",
"60 311 OFFCURVE",
"60 300 CURVE SMOOTH",
"60 60 LINE SMOOTH",
"60 49 OFFCURVE",
"69 40 OFFCURVE",
"80 40 CURVE SMOOTH"
);
},
{
closed = 1;
nodes = (
"260 120 LINE",
"260 160 LINE",
"140 160 LINE",
"140 120 LINE"
);
},
{
closed = 1;
nodes = (
"100 200 LINE",
"380 200 LINE",
"380 80 LINE",
"100 80 LINE"
);
},
{
closed = 1;
nodes = (
"340 120 LINE",
"340 160 LINE",
"300 160 LINE",
"300 120 LINE"
);
}
);
width = 480;
}
);
note = subtitles;
unicode = E787;
category = Symbol;
},
{
glyphname = server;
production = server;
lastChange = "2022-10-13 07:56:49 +0000";
layers = (
{
layerId = "6EE81571-8FAC-412F-997F-533F3C178221";
paths = (
{
closed = 1;
nodes = (
"400 0 LINE SMOOTH",
"411 0 OFFCURVE",
"420 9 OFFCURVE",
"420 20 CURVE SMOOTH",
"420 340 LINE SMOOTH",
"420 351 OFFCURVE",
"411 360 OFFCURVE",
"400 360 CURVE SMOOTH",
"80 360 LINE SMOOTH",
"69 360 OFFCURVE",
"60 351 OFFCURVE",
"60 340 CURVE SMOOTH",
"60 20 LINE SMOOTH",
"60 9 OFFCURVE",
"69 0 OFFCURVE",
"80 0 CURVE SMOOTH"
);
},
{
closed = 1;
nodes = (
"260 80 LINE",
"260 120 LINE",
"140 120 LINE",
"140 80 LINE"
);
},
{
closed = 1;
nodes = (
"100 160 LINE",
"380 160 LINE",
"380 40 LINE",
"100 40 LINE"
);
},
{
closed = 1;
nodes = (
"340 80 LINE",
"340 120 LINE",
"300 120 LINE",
"300 80 LINE"
);
},
{
closed = 1;
nodes = (
"260 240 LINE",
"260 280 LINE",
"140 280 LINE",
"140 240 LINE"
);
},
{
closed = 1;
nodes = (
"100 320 LINE",
"380 320 LINE",
"380 200 LINE",
"100 200 LINE"
);
},
{
closed = 1;
nodes = (
"340 240 LINE",
"340 280 LINE",
"300 280 LINE",
"300 240 LINE"
);
}
);
width = 480;
}
);
note = subtitles;
unicode = E788;
category = Symbol;
},
{
glyphname = power;
production = power;
lastChange = "2022-10-13 07:56:49 +0000";
layers = (
{
layerId = "6EE81571-8FAC-412F-997F-533F3C178221";
paths = (
{
closed = 1;
nodes = (
"107 275 OFFCURVE",
"70 223 OFFCURVE",
"70 160 CURVE SMOOTH",
"70 76 OFFCURVE",
"136 10 OFFCURVE",
"220 10 CURVE SMOOTH",
"304 10 OFFCURVE",
"370 76 OFFCURVE",
"370 160 CURVE SMOOTH",
"370 223 OFFCURVE",
"333 275 OFFCURVE",
"280 298 CURVE",
"280 253 LINE",
"310 234 OFFCURVE",
"330 200 OFFCURVE",
"330 160 CURVE SMOOTH",
"330 98 OFFCURVE",
"282 50 OFFCURVE",
"220 50 CURVE SMOOTH",
"158 50 OFFCURVE",
"110 98 OFFCURVE",
"110 160 CURVE SMOOTH",
"110 200 OFFCURVE",
"130 234 OFFCURVE",
"160 253 CURVE",
"160 298 LINE"
);
},
{
closed = 1;
nodes = (
"200 200 LINE",
"240 200 LINE",
"240 340 LINE",
"200 340 LINE"
);
}
);
width = 440;
}
);
note = replay;
unicode = E789;
category = Symbol;
},
{
glyphname = copy;
production = copy;
lastChange = "2022-10-13 07:56:49 +0000";
layers = (
{
layerId = "6EE81571-8FAC-412F-997F-533F3C178221";
paths = (
{
closed = 1;
nodes = (
"140 80 LINE",
"140 20 LINE SMOOTH",
"140 9 OFFCURVE",
"149 0 OFFCURVE",
"160 0 CURVE SMOOTH",
"400 0 LINE SMOOTH",
"411 0 OFFCURVE",
"420 9 OFFCURVE",
"420 20 CURVE SMOOTH",
"420 260 LINE SMOOTH",
"420 271 OFFCURVE",
"411 280 OFFCURVE",
"400 280 CURVE SMOOTH",
"340 280 LINE",
"340 340 LINE SMOOTH",
"340 351 OFFCURVE",
"331 360 OFFCURVE",
"320 360 CURVE SMOOTH",
"80 360 LINE SMOOTH",
"69 360 OFFCURVE",
"60 351 OFFCURVE",
"60 340 CURVE SMOOTH",
"60 100 LINE SMOOTH",
"60 89 OFFCURVE",
"69 80 OFFCURVE",
"80 80 CURVE SMOOTH"
);
},
{
closed = 1;
nodes = (
"180 80 LINE",
"320 80 LINE SMOOTH",
"331 80 OFFCURVE",
"340 89 OFFCURVE",
"340 100 CURVE SMOOTH",
"340 240 LINE",
"380 240 LINE",
"380 40 LINE",
"180 40 LINE"
);
},
{
closed = 1;
nodes = (
"300 120 LINE",
"180 120 LINE",
"140 120 LINE",
"100 120 LINE",
"100 320 LINE",
"300 320 LINE",
"300 280 LINE",
"300 240 LINE"
);
}
);
width = 480;
}
);
note = document;
unicode = E78A;
category = Symbol;
},
{
glyphname = transparent;
production = transparent;
lastChange = "2022-10-13 07:56:49 +0000";
layers = (
{
background = {
paths = (
{
closed = 1;
nodes = (
"260 120 LINE",
"260 220 LINE",
"160 220 LINE",
"160 120 LINE"
);
},
{
closed = 1;
nodes = (
"140 120 LINE",
"140 240 LINE",
"260 240 LINE",
"260 340 LINE",
"40 340 LINE",
"40 120 LINE"
);
},
{
closed = 1;
nodes = (
"380 0 LINE",
"380 220 LINE",
"280 220 LINE",
"280 100 LINE",
"160 100 LINE",
"160 0 LINE"
);
}
);
};
layerId = "6EE81571-8FAC-412F-997F-533F3C178221";
paths = (
{
closed = 1;
nodes = (
"320 80 LINE SMOOTH",
"331 80 OFFCURVE",
"340 89 OFFCURVE",
"340 100 CURVE SMOOTH",
"340 340 LINE SMOOTH",
"340 351 OFFCURVE",
"331 360 OFFCURVE",
"320 360 CURVE SMOOTH",
"80 360 LINE SMOOTH",
"69 360 OFFCURVE",
"60 351 OFFCURVE",
"60 340 CURVE SMOOTH",
"60 100 LINE SMOOTH",
"60 89 OFFCURVE",
"69 80 OFFCURVE",
"80 80 CURVE SMOOTH"
);
},
{
closed = 1;
nodes = (
"100 320 LINE",
"300 320 LINE",
"300 120 LINE",
"100 120 LINE"
);
},
{
closed = 1;
nodes = (
"400 0 LINE SMOOTH",
"411 0 OFFCURVE",
"420 9 OFFCURVE",
"420 20 CURVE SMOOTH",
"420 260 LINE SMOOTH",
"420 271 OFFCURVE",
"411 280 OFFCURVE",
"400 280 CURVE SMOOTH",
"160 280 LINE SMOOTH",
"149 280 OFFCURVE",
"140 271 OFFCURVE",
"140 260 CURVE SMOOTH",
"140 20 LINE SMOOTH",
"140 9 OFFCURVE",
"149 0 OFFCURVE",
"160 0 CURVE SMOOTH"
);
},
{
closed = 1;
nodes = (
"180 240 LINE",
"380 240 LINE",
"380 40 LINE",
"180 40 LINE"
);
}
);
width = 480;
}
);
note = chapters;
unicode = E78B;
category = Symbol;
},
{
glyphname = opaque;
production = opaque;
lastChange = "2022-10-13 07:56:49 +0000";
layers = (
{
background = {
paths = (
{
closed = 1;
nodes = (
"260 120 LINE",
"260 220 LINE",
"160 220 LINE",
"160 120 LINE"
);
},
{
closed = 1;
nodes = (
"140 120 LINE",
"140 240 LINE",
"260 240 LINE",
"260 340 LINE",
"40 340 LINE",
"40 120 LINE"
);
},
{
closed = 1;
nodes = (
"380 0 LINE",
"380 220 LINE",
"280 220 LINE",
"280 100 LINE",
"160 100 LINE",
"160 0 LINE"
);
}
);
};
layerId = "6EE81571-8FAC-412F-997F-533F3C178221";
paths = (
{
closed = 1;
nodes = (
"140 80 LINE",
"140 20 LINE SMOOTH",
"140 9 OFFCURVE",
"149 0 OFFCURVE",
"160 0 CURVE SMOOTH",
"400 0 LINE SMOOTH",
"411 0 OFFCURVE",
"420 9 OFFCURVE",
"420 20 CURVE SMOOTH",
"420 260 LINE SMOOTH",
"420 271 OFFCURVE",
"411 280 OFFCURVE",
"400 280 CURVE SMOOTH",
"340 280 LINE",
"340 340 LINE SMOOTH",
"340 351 OFFCURVE",
"331 360 OFFCURVE",
"320 360 CURVE SMOOTH",
"80 360 LINE SMOOTH",
"69 360 OFFCURVE",
"60 351 OFFCURVE",
"60 340 CURVE SMOOTH",
"60 100 LINE SMOOTH",
"60 89 OFFCURVE",
"69 80 OFFCURVE",
"80 80 CURVE SMOOTH"
);
},
{
closed = 1;
nodes = (
"100 320 LINE",
"300 320 LINE",
"300 280 LINE",
"160 280 LINE SMOOTH",
"149 280 OFFCURVE",
"140 271 OFFCURVE",
"140 260 CURVE SMOOTH",
"140 120 LINE",
"100 120 LINE"
);
},
{
closed = 1;
nodes = (
"180 80 LINE",
"320 80 LINE SMOOTH",
"331 80 OFFCURVE",
"340 89 OFFCURVE",
"340 100 CURVE SMOOTH",
"340 240 LINE",
"380 240 LINE",
"380 40 LINE",
"180 40 LINE"
);
}
);
width = 480;
}
);
note = chapters;
unicode = E78C;
category = Symbol;
},
{
glyphname = landscape;
production = landscape;
lastChange = "2022-10-13 07:56:49 +0000";
layers = (
{
layerId = "6EE81571-8FAC-412F-997F-533F3C178221";
paths = (
{
closed = 1;
nodes = (
"400 40 LINE SMOOTH",
"411 40 OFFCURVE",
"420 49 OFFCURVE",
"420 60 CURVE SMOOTH",
"420 300 LINE SMOOTH",
"420 311 OFFCURVE",
"411 320 OFFCURVE",
"400 320 CURVE SMOOTH",
"80 320 LINE SMOOTH",
"69 320 OFFCURVE",
"60 311 OFFCURVE",
"60 300 CURVE SMOOTH",
"60 60 LINE SMOOTH",
"60 49 OFFCURVE",
"69 40 OFFCURVE",
"80 40 CURVE SMOOTH"
);
},
{
closed = 1;
nodes = (
"100 280 LINE",
"380 280 LINE",
"380 80 LINE",
"100 80 LINE"
);
}
);
width = 480;
}
);
unicode = E78D;
category = Symbol;
},
{
glyphname = "panel-left";
production = "panel-left";
lastChange = "2022-10-13 07:56:49 +0000";
layers = (
{
components = (
{
name = landscape;
}
);
layerId = "6EE81571-8FAC-412F-997F-533F3C178221";
paths = (
{
closed = 1;
nodes = (
"141 120 LINE",
"241 120 LINE",
"241 240 LINE",
"141 240 LINE"
);
}
);
width = 480;
}
);
note = subtitles;
unicode = E78F;
category = Symbol;
},
{
glyphname = min;
lastChange = "2022-10-13 09:09:02 +0000";
layers = (
{
layerId = "6EE81571-8FAC-412F-997F-533F3C178221";
paths = (
{
closed = 1;
nodes = (
"320 40 LINE",
"320 80 LINE",
"60 80 LINE",
"60 40 LINE"
);
}
);
width = 380;
}
);
unicode = E791;
},
{
glyphname = scale;
production = scale;
lastChange = "2022-10-13 07:56:49 +0000";
layers = (
{
background = {
paths = (
{
closed = 1;
nodes = (
"380 320 LINE",
"260 320 LINE",
"305 275 LINE",
"145 115 LINE",
"100 160 LINE",
"100 40 LINE",
"220 40 LINE",
"175 85 LINE",
"335 245 LINE",
"380 200 LINE"
);
}
);
};
layerId = "6EE81571-8FAC-412F-997F-533F3C178221";
paths = (
{
closed = 1;
nodes = (
"360 300 LINE",
"230 300 LINE",
"360 170 LINE"
);
},
{
closed = 1;
nodes = (
"160 130 LINE",
"190 100 LINE",
"320 230 LINE",
"290 260 LINE"
);
},
{
closed = 1;
nodes = (
"120 60 LINE",
"250 60 LINE",
"120 190 LINE"
);
},
{
closed = 1;
nodes = (
"300 210 LINE",
"270 240 LINE",
"140 110 LINE",
"170 80 LINE"
);
}
);
width = 480;
}
);
note = back;
unicode = E793;
category = Symbol;
},
{
glyphname = move;
production = move;
lastChange = "2022-10-13 07:56:49 +0000";
layers = (
{
layerId = "6EE81571-8FAC-412F-997F-533F3C178221";
paths = (
{
closed = 1;
nodes = (
"380 320 LINE",
"260 320 LINE",
"305 275 LINE",
"145 115 LINE",
"100 160 LINE",
"100 40 LINE",
"220 40 LINE",
"175 85 LINE",
"335 245 LINE",
"380 200 LINE"
);
},
{
closed = 1;
nodes = (
"145 245 LINE",
"305 85 LINE",
"260 40 LINE",
"380 40 LINE",
"380 160 LINE",
"335 115 LINE",
"175 275 LINE",
"220 320 LINE",
"100 320 LINE",
"100 200 LINE"
);
}
);
width = 480;
}
);
note = back;
unicode = E794;
category = Symbol;
},
{
glyphname = internal;
production = internal;
lastChange = "2022-10-13 11:59:28 +0000";
layers = (
{
background = {
paths = (
{
closed = 1;
nodes = (
"360 340 LINE",
"230 340 LINE",
"360 210 LINE"
);
},
{
closed = 1;
nodes = (
"160 170 LINE",
"190 140 LINE",
"320 270 LINE",
"290 300 LINE"
);
},
{
closed = 1;
nodes = (
"320 60 LINE",
"80 60 LINE",
"80 300 LINE",
"180 300 LINE",
"180 340 LINE",
"60 340 LINE SMOOTH",
"49 340 OFFCURVE",
"40 331 OFFCURVE",
"40 320 CURVE SMOOTH",
"40 40 LINE SMOOTH",
"40 29 OFFCURVE",
"49 20 OFFCURVE",
"60 20 CURVE SMOOTH",
"340 20 LINE SMOOTH",
"351 20 OFFCURVE",
"360 29 OFFCURVE",
"360 40 CURVE SMOOTH",
"360 160 LINE",
"320 160 LINE"
);
}
);
};
layerId = "6EE81571-8FAC-412F-997F-533F3C178221";
paths = (
{
closed = 1;
nodes = (
"160 120 LINE",
"280 120 LINE",
"280 240 LINE"
);
},
{
closed = 1;
nodes = (
"240 190 LINE",
"110 320 LINE",
"80 290 LINE",
"210 160 LINE"
);
},
{
closed = 1;
nodes = (
"80 180 LINE",
"80 40 LINE SMOOTH",
"80 29 OFFCURVE",
"89 20 OFFCURVE",
"100 20 CURVE SMOOTH",
"360 20 LINE SMOOTH",
"371 20 OFFCURVE",
"380 29 OFFCURVE",
"380 40 CURVE SMOOTH",
"380 300 LINE SMOOTH",
"380 311 OFFCURVE",
"371 320 OFFCURVE",
"360 320 CURVE SMOOTH",
"220 320 LINE",
"220 280 LINE",
"340 280 LINE",
"340 60 LINE",
"120 60 LINE",
"120 180 LINE"
);
}
);
width = 460;
}
);
note = back;
unicode = E795;
category = Symbol;
},
{
export = 0;
glyphname = save;
production = save;
lastChange = "2022-10-13 07:45:26 +0000";
layers = (
{
layerId = "6EE81571-8FAC-412F-997F-533F3C178221";
paths = (
{
closed = 1;
nodes = (
"320 20 LINE SMOOTH",
"342 20 OFFCURVE",
"360 38 OFFCURVE",
"360 60 CURVE SMOOTH",
"360 266 LINE SMOOTH",
"360 274 OFFCURVE",
"356 284 OFFCURVE",
"350 290 CURVE SMOOTH",
"310 330 LINE SMOOTH",
"304 336 OFFCURVE",
"296 340 OFFCURVE",
"290 340 CURVE",
"290 260 LINE SMOOTH",
"290 249 OFFCURVE",
"281 240 OFFCURVE",
"270 240 CURVE SMOOTH",
"150 240 LINE SMOOTH",
"139 240 OFFCURVE",
"130 249 OFFCURVE",
"130 260 CURVE SMOOTH",
"130 340 LINE",
"100 340 LINE SMOOTH",
"78 340 OFFCURVE",
"60 322 OFFCURVE",
"60 300 CURVE SMOOTH",
"60 60 LINE SMOOTH",
"60 38 OFFCURVE",
"78 20 OFFCURVE",
"100 20 CURVE SMOOTH"
);
},
{
closed = 1;
nodes = (
"100 180 LINE SMOOTH",
"100 191 OFFCURVE",
"109 200 OFFCURVE",
"120 200 CURVE SMOOTH",
"300 200 LINE SMOOTH",
"311 200 OFFCURVE",
"320 191 OFFCURVE",
"320 180 CURVE SMOOTH",
"320 80 LINE SMOOTH",
"320 69 OFFCURVE",
"311 60 OFFCURVE",
"300 60 CURVE SMOOTH",
"120 60 LINE SMOOTH",
"109 60 OFFCURVE",
"100 69 OFFCURVE",
"100 80 CURVE SMOOTH"
);
},
{
closed = 1;
nodes = (
"219 280 LINE SMOOTH",
"219 269 OFFCURVE",
"228 260 OFFCURVE",
"239 260 CURVE SMOOTH",
"250 260 OFFCURVE",
"259 269 OFFCURVE",
"259 280 CURVE SMOOTH",
"259 320 LINE SMOOTH",
"259 331 OFFCURVE",
"250 340 OFFCURVE",
"239 340 CURVE SMOOTH",
"228 340 OFFCURVE",
"219 331 OFFCURVE",
"219 320 CURVE SMOOTH"
);
}
);
width = 440;
}
);
note = document;
category = Symbol;
},
{
export = 0;
glyphname = unknown.001;
production = unknown.001;
lastChange = "2022-10-13 05:10:02 +0000";
layers = (
{
components = (
{
name = box;
}
);
layerId = "6EE81571-8FAC-412F-997F-533F3C178221";
paths = (
{
closed = 1;
nodes = (
"260 150 LINE",
"260 180 OFFCURVE",
"308 176 OFFCURVE",
"308 224 CURVE",
"308 258 OFFCURVE",
"284 280 OFFCURVE",
"240 280 CURVE",
"196 280 OFFCURVE",
"170 252 OFFCURVE",
"170 208 CURVE",
"210 208 LINE",
"210 230 OFFCURVE",
"222 244 OFFCURVE",
"244 244 CURVE",
"258 244 OFFCURVE",
"268 236 OFFCURVE",
"268 224 CURVE",
"268 196 OFFCURVE",
"220 198 OFFCURVE",
"220 150 CURVE"
);
},
{
closed = 1;
nodes = (
"260 80 LINE",
"260 120 LINE",
"220 120 LINE",
"220 80 LINE"
);
}
);
width = 480;
}
);
note = document;
category = Symbol;
},
{
export = 0;
glyphname = "social-facebook";
production = "social-facebook";
lastChange = "2022-10-13 00:17:03 +0000";
layers = (
{
background = {
paths = (
{
closed = 1;
nodes = (
"195 0 LINE",
"195 180 LINE",
"248 180 LINE",
"259 240 LINE",
"195 240 LINE",
"195 289 LINE",
"195 295 OFFCURVE",
"200 300 OFFCURVE",
"206 300 CURVE",
"263 300 LINE",
"263 360 LINE",
"214 360 LINE",
"171 360 OFFCURVE",
"135 324 OFFCURVE",
"135 281 CURVE",
"135 240 LINE",
"90 240 LINE",
"90 180 LINE",
"135 180 LINE",
"135 0 LINE"
);
}
);
};
layerId = "6EE81571-8FAC-412F-997F-533F3C178221";
paths = (
{
closed = 1;
nodes = (
"250 350 LINE",
"220 350 LINE SMOOTH",
"170 350 OFFCURVE",
"130 300 OFFCURVE",
"130 250 CURVE SMOOTH",
"130 230 LINE",
"70 230 LINE",
"70 170 LINE",
"130 170 LINE",
"130 20 LINE",
"190 20 LINE",
"190 170 LINE",
"240 170 LINE",
"250 230 LINE",
"190 230 LINE",
"190 250 LINE SMOOTH",
"190 270 OFFCURVE",
"210 280 OFFCURVE",
"220 280 CURVE SMOOTH",
"250 280 LINE"
);
}
);
width = 325;
}
);
note = cloud;
unicode = E76C;
},
{
export = 0;
glyphname = "social-twitter";
production = "social-twitter";
lastChange = "2022-10-13 00:17:05 +0000";
layers = (
{
background = {
components = (
{
name = "radio-full";
transform = "{1, 0, 0, 1, -20, 0}";
}
);
};
layerId = "6EE81571-8FAC-412F-997F-533F3C178221";
paths = (
{
closed = 1;
nodes = (
"310 30 OFFCURVE",
"390 140 OFFCURVE",
"390 250 CURVE SMOOTH",
"390 260 LINE",
"410 270 OFFCURVE",
"420 280 OFFCURVE",
"430 300 CURVE",
"410 290 OFFCURVE",
"400 290 OFFCURVE",
"380 290 CURVE",
"400 290 OFFCURVE",
"410 310 OFFCURVE",
"420 330 CURVE",
"400 320 OFFCURVE",
"390 310 OFFCURVE",
"370 310 CURVE",
"350 320 OFFCURVE",
"340 330 OFFCURVE",
"310 330 CURVE SMOOTH",
"270 330 OFFCURVE",
"240 300 OFFCURVE",
"240 260 CURVE SMOOTH",
"240 250 OFFCURVE",
"240 240 OFFCURVE",
"240 240 CURVE",
"170 240 OFFCURVE",
"120 270 OFFCURVE",
"80 320 CURVE",
"70 310 OFFCURVE",
"70 290 OFFCURVE",
"70 280 CURVE SMOOTH",
"70 250 OFFCURVE",
"80 230 OFFCURVE",
"100 220 CURVE",
"90 220 OFFCURVE",
"80 220 OFFCURVE",
"70 230 CURVE",
"70 220 LINE SMOOTH",
"70 190 OFFCURVE",
"90 160 OFFCURVE",
"130 150 CURVE",
"120 150 OFFCURVE",
"120 150 OFFCURVE",
"110 150 CURVE SMOOTH",
"100 150 OFFCURVE",
"100 150 OFFCURVE",
"90 150 CURVE",
"100 120 OFFCURVE",
"130 100 OFFCURVE",
"170 90 CURVE",
"140 70 OFFCURVE",
"110 60 OFFCURVE",
"70 60 CURVE SMOOTH",
"60 60 OFFCURVE",
"60 60 OFFCURVE",
"50 60 CURVE",
"90 40 OFFCURVE",
"130 30 OFFCURVE",
"170 30 CURVE SMOOTH"
);
}
);
width = 480;
}
);
note = cloud;
unicode = E76D;
},
{
export = 0;
glyphname = "social-linkedin";
production = "social-linkedin";
lastChange = "2022-10-12 06:46:05 +0000";
layers = (
{
background = {
components = (
{
name = "radio-full";
transform = "{1, 0, 0, 1, -20, 0}";
}
);
paths = (
{
closed = 1;
nodes = (
"255 0 LINE",
"255 127 LINE SMOOTH",
"255 156 OFFCURVE",
"276 178 OFFCURVE",
"301 178 CURVE SMOOTH",
"325 178 OFFCURVE",
"345 157 OFFCURVE",
"345 128 CURVE SMOOTH",
"345 0 LINE",
"420 0 LINE",
"420 142 LINE SMOOTH",
"420 207 OFFCURVE",
"379 243 OFFCURVE",
"329 243 CURVE SMOOTH",
"298 243 OFFCURVE",
"269 227 OFFCURVE",
"255 202 CURVE",
"255 240 LINE",
"180 240 LINE",
"180 0 LINE"
);
},
{
closed = 1;
nodes = (
"136 0 LINE",
"136 240 LINE",
"61 240 LINE",
"61 0 LINE"
);
},
{
closed = 1;
nodes = (
"127 278 OFFCURVE",
"146 299 OFFCURVE",
"146 326 CURVE SMOOTH",
"146 354 OFFCURVE",
"126 375 OFFCURVE",
"98 375 CURVE SMOOTH",
"69 375 OFFCURVE",
"49 354 OFFCURVE",
"49 326 CURVE SMOOTH",
"49 299 OFFCURVE",
"68 278 OFFCURVE",
"97 278 CURVE SMOOTH"
);
}
);
};
layerId = "6EE81571-8FAC-412F-997F-533F3C178221";
paths = (
{
closed = 1;
nodes = (
"250 40 LINE",
"250 160 LINE SMOOTH",
"250 180 OFFCURVE",
"270 200 OFFCURVE",
"290 200 CURVE SMOOTH",
"310 200 OFFCURVE",
"330 180 OFFCURVE",
"330 160 CURVE SMOOTH",
"330 40 LINE",
"390 40 LINE",
"390 160 LINE SMOOTH",
"390 220 OFFCURVE",
"350 240 OFFCURVE",
"310 240 CURVE SMOOTH",
"290 240 OFFCURVE",
"260 230 OFFCURVE",
"250 210 CURVE",
"250 240 LINE",
"190 240 LINE",
"190 40 LINE"
);
},
{
closed = 1;
nodes = (
"160 40 LINE",
"160 240 LINE",
"100 240 LINE",
"100 40 LINE"
);
},
{
closed = 1;
nodes = (
"150 270 OFFCURVE",
"170 290 OFFCURVE",
"170 310 CURVE SMOOTH",
"170 330 OFFCURVE",
"150 350 OFFCURVE",
"130 350 CURVE SMOOTH",
"100 350 OFFCURVE",
"90 330 OFFCURVE",
"90 310 CURVE SMOOTH",
"90 290 OFFCURVE",
"100 270 OFFCURVE",
"130 270 CURVE SMOOTH"
);
}
);
width = 480;
}
);
note = cloud;
unicode = E76E;
},
{
export = 0;
glyphname = "social-instagram";
production = "social-instagram";
lastChange = "2022-10-12 06:46:05 +0000";
layers = (
{
background = {
components = (
{
name = "radio-full";
transform = "{1, 0, 0, 1, -20, 0}";
}
);
};
layerId = "6EE81571-8FAC-412F-997F-533F3C178221";
paths = (
{
closed = 1;
nodes = (
"280 10 OFFCURVE",
"280 10 OFFCURVE",
"300 10 CURVE SMOOTH",
"320 10 OFFCURVE",
"350 20 OFFCURVE",
"370 40 CURVE SMOOTH",
"390 60 OFFCURVE",
"400 80 OFFCURVE",
"400 110 CURVE SMOOTH",
"400 130 OFFCURVE",
"400 130 OFFCURVE",
"400 180 CURVE SMOOTH",
"400 230 OFFCURVE",
"400 230 OFFCURVE",
"400 250 CURVE SMOOTH",
"400 280 OFFCURVE",
"390 300 OFFCURVE",
"370 320 CURVE SMOOTH",
"350 340 OFFCURVE",
"330 350 OFFCURVE",
"300 350 CURVE SMOOTH",
"280 350 OFFCURVE",
"280 350 OFFCURVE",
"230 350 CURVE SMOOTH",
"180 350 OFFCURVE",
"180 350 OFFCURVE",
"160 350 CURVE SMOOTH",
"130 350 OFFCURVE",
"110 340 OFFCURVE",
"90 320 CURVE SMOOTH",
"70 300 OFFCURVE",
"60 280 OFFCURVE",
"60 250 CURVE SMOOTH",
"60 230 OFFCURVE",
"60 230 OFFCURVE",
"60 180 CURVE SMOOTH",
"60 130 OFFCURVE",
"60 130 OFFCURVE",
"60 110 CURVE SMOOTH",
"60 80 OFFCURVE",
"70 60 OFFCURVE",
"90 40 CURVE SMOOTH",
"110 20 OFFCURVE",
"130 10 OFFCURVE",
"160 10 CURVE SMOOTH",
"180 10 OFFCURVE",
"180 10 OFFCURVE",
"230 10 CURVE SMOOTH"
);
},
{
closed = 1;
nodes = (
"180 40 OFFCURVE",
"180 40 OFFCURVE",
"160 40 CURVE SMOOTH",
"140 40 OFFCURVE",
"130 50 OFFCURVE",
"110 60 CURVE SMOOTH",
"100 70 OFFCURVE",
"90 90 OFFCURVE",
"90 110 CURVE SMOOTH",
"90 130 OFFCURVE",
"90 140 OFFCURVE",
"90 180 CURVE SMOOTH",
"90 230 OFFCURVE",
"90 230 OFFCURVE",
"90 250 CURVE SMOOTH",
"90 270 OFFCURVE",
"100 290 OFFCURVE",
"110 300 CURVE SMOOTH",
"120 310 OFFCURVE",
"140 320 OFFCURVE",
"160 320 CURVE SMOOTH",
"180 320 OFFCURVE",
"180 320 OFFCURVE",
"230 320 CURVE SMOOTH",
"270 320 OFFCURVE",
"280 320 OFFCURVE",
"300 320 CURVE SMOOTH",
"320 320 OFFCURVE",
"340 310 OFFCURVE",
"350 300 CURVE SMOOTH",
"360 290 OFFCURVE",
"370 270 OFFCURVE",
"370 250 CURVE SMOOTH",
"370 230 OFFCURVE",
"370 230 OFFCURVE",
"370 180 CURVE SMOOTH",
"370 140 OFFCURVE",
"370 130 OFFCURVE",
"370 110 CURVE SMOOTH",
"370 100 OFFCURVE",
"360 70 OFFCURVE",
"350 60 CURVE SMOOTH",
"340 50 OFFCURVE",
"320 40 OFFCURVE",
"300 40 CURVE SMOOTH",
"280 40 OFFCURVE",
"270 40 OFFCURVE",
"230 40 CURVE SMOOTH"
);
},
{
closed = 1;
nodes = (
"280 90 OFFCURVE",
"320 130 OFFCURVE",
"320 180 CURVE SMOOTH",
"320 230 OFFCURVE",
"280 270 OFFCURVE",
"230 270 CURVE SMOOTH",
"180 270 OFFCURVE",
"140 230 OFFCURVE",
"140 180 CURVE SMOOTH",
"140 130 OFFCURVE",
"180 90 OFFCURVE",
"230 90 CURVE SMOOTH"
);
},
{
closed = 1;
nodes = (
"200 120 OFFCURVE",
"170 150 OFFCURVE",
"170 180 CURVE SMOOTH",
"170 210 OFFCURVE",
"200 240 OFFCURVE",
"230 240 CURVE SMOOTH",
"260 240 OFFCURVE",
"290 210 OFFCURVE",
"290 180 CURVE SMOOTH",
"290 150 OFFCURVE",
"260 120 OFFCURVE",
"230 120 CURVE SMOOTH"
);
},
{
closed = 1;
nodes = (
"330 250 OFFCURVE",
"340 260 OFFCURVE",
"340 270 CURVE SMOOTH",
"340 280 OFFCURVE",
"330 290 OFFCURVE",
"320 290 CURVE SMOOTH",
"310 290 OFFCURVE",
"300 280 OFFCURVE",
"300 270 CURVE SMOOTH",
"300 260 OFFCURVE",
"310 250 OFFCURVE",
"320 250 CURVE SMOOTH"
);
}
);
width = 458;
}
);
note = cloud;
unicode = E76F;
},
{
export = 0;
glyphname = "social-youtube";
production = "social-youtube";
lastChange = "2022-10-12 07:25:45 +0000";
layers = (
{
background = {
components = (
{
name = "radio-full";
transform = "{1, 0, 0, 1, -20, 0}";
}
);
};
layerId = "6EE81571-8FAC-412F-997F-533F3C178221";
paths = (
{
closed = 1;
nodes = (
"415 265 OFFCURVE",
"400 280 CURVE SMOOTH",
"385 295 OFFCURVE",
"320 300 OFFCURVE",
"230 300 CURVE SMOOTH",
"140 300 OFFCURVE",
"77 296 OFFCURVE",
"60 280 CURVE SMOOTH",
"47 266 OFFCURVE",
"40 230 OFFCURVE",
"40 180 CURVE SMOOTH",
"40 130 OFFCURVE",
"45 95 OFFCURVE",
"60 80 CURVE SMOOTH",
"75 65 OFFCURVE",
"140 60 OFFCURVE",
"230 60 CURVE SMOOTH",
"320 60 OFFCURVE",
"385 65 OFFCURVE",
"400 80 CURVE SMOOTH",
"415 95 OFFCURVE",
"420 130 OFFCURVE",
"420 180 CURVE SMOOTH",
"420 230 OFFCURVE"
);
},
{
closed = 1;
nodes = (
"200 240 LINE",
"300 180 LINE",
"200 120 LINE"
);
}
);
width = 458;
}
);
note = cloud;
unicode = E770;
},
{
export = 0;
glyphname = "social-messenger";
production = "social-messenger";
lastChange = "2022-10-12 06:46:05 +0000";
layers = (
{
background = {
components = (
{
name = "radio-full";
transform = "{1, 0, 0, 1, -20, 0}";
}
);
};
layerId = "6EE81571-8FAC-412F-997F-533F3C178221";
paths = (
{
closed = 1;
nodes = (
"140 350 OFFCURVE",
"60 280 OFFCURVE",
"60 190 CURVE SMOOTH",
"60 140 OFFCURVE",
"80 100 OFFCURVE",
"120 70 CURVE",
"120 10 LINE",
"180 40 LINE",
"200 40 OFFCURVE",
"210 40 OFFCURVE",
"230 40 CURVE SMOOTH",
"320 40 OFFCURVE",
"400 110 OFFCURVE",
"400 190 CURVE SMOOTH",
"400 280 OFFCURVE",
"320 350 OFFCURVE",
"230 350 CURVE SMOOTH"
);
},
{
closed = 1;
nodes = (
"200 190 LINE",
"120 140 LINE",
"210 240 LINE",
"260 190 LINE",
"340 240 LINE",
"250 140 LINE"
);
}
);
width = 458;
}
);
note = cloud;
unicode = E771;
},
{
export = 0;
glyphname = "social-whatsapp";
production = "social-whatsapp";
lastChange = "2022-10-12 06:46:05 +0000";
layers = (
{
background = {
components = (
{
name = "radio-full";
transform = "{1, 0, 0, 1, -20, 0}";
}
);
};
layerId = "6EE81571-8FAC-412F-997F-533F3C178221";
paths = (
{
closed = 1;
nodes = (
"150 30 LINE",
"170 20 OFFCURVE",
"200 10 OFFCURVE",
"230 10 CURVE SMOOTH",
"320 10 OFFCURVE",
"400 90 OFFCURVE",
"400 180 CURVE SMOOTH",
"400 280 OFFCURVE",
"320 350 OFFCURVE",
"230 350 CURVE SMOOTH",
"140 350 OFFCURVE",
"60 270 OFFCURVE",
"60 180 CURVE SMOOTH",
"60 150 OFFCURVE",
"70 120 OFFCURVE",
"80 100 CURVE",
"60 10 LINE"
);
},
{
closed = 1;
nodes = (
"200 40 OFFCURVE",
"180 50 OFFCURVE",
"150 70 CURVE",
"100 50 LINE",
"110 100 LINE",
"100 130 OFFCURVE",
"90 150 OFFCURVE",
"90 180 CURVE SMOOTH",
"90 260 OFFCURVE",
"150 320 OFFCURVE",
"230 320 CURVE SMOOTH",
"300 320 OFFCURVE",
"370 260 OFFCURVE",
"370 180 CURVE SMOOTH",
"370 100 OFFCURVE",
"310 40 OFFCURVE",
"230 40 CURVE SMOOTH"
);
},
{
closed = 1;
nodes = (
"240 100 OFFCURVE",
"270 100 CURVE SMOOTH",
"290 100 OFFCURVE",
"310 110 OFFCURVE",
"320 140 CURVE",
"270 160 LINE",
"250 140 LINE",
"230 150 OFFCURVE",
"200 170 OFFCURVE",
"190 200 CURVE",
"200 220 LINE",
"180 260 LINE",
"160 260 OFFCURVE",
"140 240 OFFCURVE",
"140 220 CURVE SMOOTH",
"140 200 OFFCURVE",
"170 170 OFFCURVE",
"190 140 CURVE SMOOTH",
"210 120 OFFCURVE"
);
}
);
width = 458;
}
);
note = cloud;
unicode = E772;
},
{
export = 0;
glyphname = _part.crossbar;
lastChange = "2022-10-12 09:41:28 +0000";
layers = (
{
layerId = "6EE81571-8FAC-412F-997F-533F3C178221";
paths = (
{
closed = 1;
nodes = (
"420 30 LINE",
"90 360 LINE",
"60 330 LINE",
"390 0 LINE"
);
}
